<svg xmlns="http://www.w3.org/2000/svg" x="0px" y="0px" viewBox="0 0 100 100" style="enable-background:new 0 0 100 100;" xml:space="preserve"><g>	<path d="M87.5,43.5v31.3H75.3V43.5C79.3,44.8,83.5,44.8,87.5,43.5 M90,39.7c-2.6,1.5-5.6,2.3-8.6,2.3c-3,0-5.9-0.8-8.5-2.3v37.5H90  L90,39.7L90,39.7z"></path>	<path d="M81.4,24c2.8,0,5,2.2,5,5c0,2.8-2.2,5-5,5c-2.8,0-5-2.2-5-5C76.4,26.2,78.6,24,81.4,24 M81.4,21.5c-4.1,0-7.5,3.3-7.5,7.5  s3.3,7.5,7.5,7.5c4.1,0,7.5-3.3,7.5-7.5S85.5,21.5,81.4,21.5L81.4,21.5z"></path>	<path d="M24.7,43.5v31.3H12.4V43.5C16.4,44.8,20.7,44.8,24.7,43.5 M27.1,39.7c-2.6,1.5-5.6,2.3-8.6,2.3c-3,0-5.9-0.8-8.5-2.3v37.5  h17.1L27.1,39.7L27.1,39.7z"></path>	<path d="M18.6,24c2.8,0,5,2.2,5,5s-2.2,5-5,5s-5-2.2-5-5l0,0C13.6,26.2,15.8,24,18.6,24 M18.6,21.5c-4.1,0-7.5,3.3-7.5,7.5  s3.3,7.5,7.5,7.5S26,33.1,26,29l0,0C26,24.9,22.7,21.5,18.6,21.5z"></path>	<path d="M61.7,38.9v49.3H38.3V38.9C42,40.3,46,41,50,40.9C54,41,58,40.3,61.7,38.9 M64.2,35.1c-4.4,2.2-9.3,3.4-14.2,3.4  c-4.9,0.1-9.8-1.1-14.2-3.4v55.5h28.4L64.2,35.1L64.2,35.1z"></path>	<path d="M50,10.7c5.4,0,9.9,3.8,9.9,8.5s-4.4,8.5-9.9,8.5s-9.8-3.8-9.8-8.5S44.5,10.7,50,10.7 M50,8.2c-6.8,0-12.3,4.9-12.3,11  s5.5,11,12.3,11s12.3-4.9,12.3-11S56.8,8.2,50,8.2z"></path></g></svg>