<svg xmlns="http://www.w3.org/2000/svg" x="0px" y="0px" viewBox="0 0 100 100" style="enable-background:new 0 0 100 100;" xml:space="preserve"><path d="M83.9,16.5c1.7-1.5,2.8-3.6,2.8-6.1c0-4.4-3.6-8-8-8s-8,3.6-8,8c0,2.4,1.1,4.6,2.8,6.1c-3.6,1.9-6,5.6-6,9.9v4h22.4v-4 C89.9,22.1,87.5,18.4,83.9,16.5z M73.9,10.5c0-2.6,2.1-4.8,4.8-4.8s4.8,2.1,4.8,4.8s-2.1,4.8-4.8,4.8S73.9,13.1,73.9,10.5z  M86.7,27.2h-16v-0.8c0-4.4,3.6-8,8-8s8,3.6,8,8V27.2z M67.6,97.5h22.4V35.2H67.6V97.5z M70.8,38.4h16v55.9h-16V38.4z M55.1,42.1 c1.7-1.5,2.8-3.6,2.8-6.1c0-4.4-3.6-8-8-8s-8,3.6-8,8c0,2.4,1.1,4.6,2.8,6.1c-3.6,1.9-6,5.6-6,9.9v4h22.4v-4 C61.2,47.7,58.7,43.9,55.1,42.1z M45.2,36c0-2.6,2.1-4.8,4.8-4.8s4.8,2.1,4.8,4.8c0,2.6-2.1,4.8-4.8,4.8S45.2,38.7,45.2,36z  M58,52.8H42V52c0-4.4,3.6-8,8-8s8,3.6,8,8V52.8z M38.8,97.5h22.4V60.8H38.8V97.5z M42,64h16v30.3H42V64z M26.4,61.2 c1.7-1.5,2.8-3.6,2.8-6.1c0-4.4-3.6-8-8-8s-8,3.6-8,8c0,2.4,1.1,4.6,2.8,6.1c-3.6,1.9-6,5.6-6,9.9v4h22.4v-4 C32.4,66.8,30,63.1,26.4,61.2z M16.5,55.2c0-2.6,2.1-4.8,4.8-4.8s4.8,2.1,4.8,4.8c0,2.6-2.1,4.8-4.8,4.8S16.5,57.8,16.5,55.2z  M29.2,72h-16v-0.8c0-4.4,3.6-8,8-8s8,3.6,8,8V72z M10.1,97.5h22.4V79.9H10.1L10.1,97.5z M13.3,83.1h16v11.2h-16V83.1z"></path></svg>