<svg xmlns="http://www.w3.org/2000/svg" x="0px" y="0px" viewBox="0 0 100 100" style="enable-background:new 0 0 100 100;" xml:space="preserve"><g>	<path d="M74,37.8H27.1c-0.8,0-1.4-0.6-1.4-1.4s0.6-1.4,1.4-1.4H74c0.8,0,1.4,0.6,1.4,1.4S74.7,37.8,74,37.8z"></path>	<path d="M62.3,45.2H34.4c-0.8,0-1.4-0.6-1.4-1.4s0.6-1.4,1.4-1.4h27.9c0.8,0,1.4,0.6,1.4,1.4S63.1,45.2,62.3,45.2z"></path>	<path d="M64.5,52.7H34.4c-0.8,0-1.4-0.6-1.4-1.4s0.6-1.4,1.4-1.4h30.1c0.8,0,1.4,0.6,1.4,1.4C65.9,52.1,65.3,52.7,64.5,52.7z"></path>	<path d="M65.6,60.3H34.4c-0.8,0-1.4-0.6-1.4-1.4s0.6-1.4,1.4-1.4h31.2c0.8,0,1.4,0.6,1.4,1.4C67,59.6,66.4,60.3,65.6,60.3z"></path>	<path d="M66,67.8H34.4c-0.8,0-1.4-0.6-1.4-1.4s0.6-1.4,1.4-1.4H66c0.8,0,1.4,0.6,1.4,1.4C67.4,67.2,66.8,67.8,66,67.8z"></path>	<path d="M65.4,75.3h-31c-0.8,0-1.4-0.6-1.4-1.4s0.6-1.4,1.4-1.4h31c0.8,0,1.4,0.6,1.4,1.4C66.8,74.7,66.2,75.3,65.4,75.3z"></path>	<path d="M64.6,82.9H34.4c-0.8,0-1.4-0.6-1.4-1.4s0.6-1.4,1.4-1.4h30.2c0.8,0,1.4,0.6,1.4,1.4S65.4,82.9,64.6,82.9z"></path>	<path d="M63.4,90.4H34.4c-0.8,0-1.4-0.6-1.4-1.4s0.6-1.4,1.4-1.4h29c0.8,0,1.4,0.6,1.4,1.4C64.8,89.7,64.2,90.4,63.4,90.4z"></path>	<path d="M78.5,97.5H21.5c-0.8,0-1.4-0.6-1.4-1.4s0.6-1.4,1.4-1.4h57.1c0.8,0,1.4,0.6,1.4,1.4S79.3,97.5,78.5,97.5z"></path>	<path d="M34.4,97.5c-0.8,0-1.4-0.6-1.4-1.4V3.9c0-0.8,0.6-1.4,1.4-1.4s1.4,0.6,1.4,1.4v92.2C35.8,96.9,35.2,97.5,34.4,97.5z"></path>	<path d="M61.6,97.5c-0.1,0-0.3,0-0.4-0.1c-0.8-0.2-1.2-1-1-1.7c18.1-63.4-24.5-81-26.3-81.7c-0.7-0.3-1.1-1.1-0.8-1.8  s1.1-1.1,1.8-0.8c0.5,0.2,46.8,19.2,28,85.1C62.7,97.1,62.2,97.5,61.6,97.5z"></path>	<path d="M63,47.4c-0.3,0-0.6-0.1-0.8-0.3c-0.6-0.5-0.8-1.3-0.3-2l7.2-9.7c0.5-0.6,1.3-0.8,2-0.3c0.6,0.5,0.8,1.3,0.3,2l-7.2,9.7  C63.9,47.2,63.5,47.4,63,47.4z"></path></g></svg>