<svg xmlns="http://www.w3.org/2000/svg" x="0px" y="0px" viewBox="0 0 60 60" style="enable-background:new 0 0 60 60;" xml:space="preserve"><g>	<path d="M30,5l3.3,21.7L55,23.2L35.4,33l10.1,19.5L30,37L14.5,52.6L24.6,33L5,23.2l21.7,3.5L30,5z"></path>	<path d="M37.7,23.5c0,0,1.7-5,3.2-7c0.5-0.7,1.4-0.8,2.1-0.3c0.7,0.5,0.8,1.4,0.3,2.1C41.9,20.2,37.7,23.5,37.7,23.5L37.7,23.5z"></path>	<path d="M22.3,23.5c0,0-1.7-5-3.2-7c-0.5-0.7-1.4-0.8-2.1-0.3c-0.7,0.5-0.8,1.4-0.3,2.1C18.1,20.2,22.3,23.5,22.3,23.5L22.3,23.5z"></path>	<path d="M17.7,38.2c0,0-4.4,3-6.7,3.8c-0.8,0.3-1.6-0.2-1.9-1c-0.3-0.8,0.2-1.6,1-1.9C12.4,38.3,17.7,38.2,17.7,38.2L17.7,38.2z"></path>	<path d="M42.4,38.2c0,0,4.4,3,6.7,3.8c0.8,0.3,1.6-0.2,1.9-1c0.3-0.8-0.2-1.6-1-1.9C47.7,38.3,42.4,38.2,42.4,38.2L42.4,38.2z"></path>	<path d="M30,47.5c0,0-1.5,5.1-1.5,7.6c0,0.8,0.7,1.5,1.5,1.5s1.5-0.7,1.5-1.5C31.5,52.6,30,47.5,30,47.5z"></path></g></svg>