<svg xmlns="http://www.w3.org/2000/svg" x="0px" y="0px" viewBox="0 0 100 100" style="enable-background:new 0 0 100 100;" xml:space="preserve"><g>	<path d="M84.5,17H83v-1.5c0-2.5-2-4.5-4.5-4.5H77V9.5C77,7,75,5,72.5,5h-57C13,5,11,7,11,9.5v69c0,2.5,2,4.5,4.5,4.5H17v1.5  c0,2.5,2,4.5,4.5,4.5H23v1.5c0,2.5,2,4.5,4.5,4.5h57c2.5,0,4.5-2,4.5-4.5v-69C89,19,87,17,84.5,17z M14,78.5v-69  C14,8.7,14.7,8,15.5,8h57C73.3,8,74,8.7,74,9.5v69c0,0.8-0.7,1.5-1.5,1.5h-57C14.7,80,14,79.3,14,78.5z M20,84.5V83h52.5  c2.5,0,4.5-2,4.5-4.5V14h1.5c0.8,0,1.5,0.7,1.5,1.5v69c0,0.8-0.7,1.5-1.5,1.5h-57C20.7,86,20,85.3,20,84.5L20,84.5z M86,90.5  c0,0.8-0.7,1.5-1.5,1.5h-57c-0.8,0-1.5-0.7-1.5-1.5V89h52.5c2.5,0,4.5-2,4.5-4.5V20h1.5c0.8,0,1.5,0.7,1.5,1.5L86,90.5z"></path>	<path d="M23,39.5h18c2.5,0,4.5-2,4.5-4.5V17c0-2.5-2-4.5-4.5-4.5H23c-2.5,0-4.5,2-4.5,4.5v18C18.5,37.5,20.5,39.5,23,39.5z   M27.5,36.5v-3c0-2.5,2-4.5,4.5-4.5s4.5,2,4.5,4.5v3H27.5z M29.7,23.7c0-1.2,1-2.3,2.3-2.3c1.2,0,2.3,1,2.3,2.3S33.2,26,32,26  S29.7,25,29.7,23.7z M21.5,17c0-0.8,0.7-1.5,1.5-1.5h18c0.8,0,1.5,0.7,1.5,1.5v18c0,0.8-0.7,1.5-1.5,1.5h-1.5v-3  c0-2.7-1.4-5-3.5-6.3c0.8-0.9,1.3-2.1,1.3-3.4c0-2.9-2.4-5.3-5.3-5.3c-2.9,0-5.3,2.4-5.3,5.3c0,1.3,0.5,2.5,1.3,3.4  c-2.1,1.3-3.5,3.7-3.5,6.3v3H23c-0.8,0-1.5-0.7-1.5-1.5V17z"></path>	<path d="M51.5,18.5H68c0.8,0,1.5-0.7,1.5-1.5c0-0.8-0.7-1.5-1.5-1.5H51.5c-0.8,0-1.5,0.7-1.5,1.5C50,17.8,50.7,18.5,51.5,18.5z"></path>	<path d="M51.5,27.5H68c0.8,0,1.5-0.7,1.5-1.5c0-0.8-0.7-1.5-1.5-1.5H51.5c-0.8,0-1.5,0.7-1.5,1.5C50,26.8,50.7,27.5,51.5,27.5z"></path>	<path d="M51.5,36.5H68c0.8,0,1.5-0.7,1.5-1.5s-0.7-1.5-1.5-1.5H51.5c-0.8,0-1.5,0.7-1.5,1.5S50.7,36.5,51.5,36.5z"></path>	<path d="M22.7,54.8c0.3,0.3,0.7,0.4,1.1,0.4c0.4,0,0.8-0.1,1.1-0.4l8.3-8.3c0.6-0.6,0.6-1.5,0-2.1s-1.5-0.6-2.1,0l-7.2,7.2L21.1,49  c-0.6-0.6-1.5-0.6-2.1,0s-0.6,1.5,0,2.1L22.7,54.8L22.7,54.8z"></path>	<path d="M68,45.5H41c-0.8,0-1.5,0.7-1.5,1.5s0.7,1.5,1.5,1.5h27c0.8,0,1.5-0.7,1.5-1.5S68.8,45.5,68,45.5z"></path>	<path d="M41,54.5h12c0.8,0,1.5-0.7,1.5-1.5s-0.7-1.5-1.5-1.5H41c-0.8,0-1.5,0.7-1.5,1.5S40.2,54.5,41,54.5z"></path>	<path d="M22.7,72.8c0.3,0.3,0.7,0.4,1.1,0.4c0.4,0,0.8-0.2,1.1-0.4l8.3-8.3c0.6-0.6,0.6-1.5,0-2.1s-1.5-0.6-2.1,0l-7.2,7.2L21.1,67  c-0.6-0.6-1.5-0.6-2.1,0c-0.6,0.6-0.6,1.5,0,2.1L22.7,72.8L22.7,72.8z"></path>	<path d="M68,63.5H41c-0.8,0-1.5,0.7-1.5,1.5c0,0.8,0.7,1.5,1.5,1.5h27c0.8,0,1.5-0.7,1.5-1.5C69.5,64.2,68.8,63.5,68,63.5z"></path>	<path d="M53,69.5H41c-0.8,0-1.5,0.7-1.5,1.5c0,0.8,0.7,1.5,1.5,1.5h12c0.8,0,1.5-0.7,1.5-1.5C54.5,70.2,53.8,69.5,53,69.5z"></path></g></svg>