<svg xmlns="http://www.w3.org/2000/svg" x="0px" y="0px" viewBox="0 0 100 100" style="enable-background:new 0 0 100 100;" xml:space="preserve"><path d="M79.4,81.2c0.1,0.9-0.1,2-0.5,2.8c-0.6,1.3-1.7,2.2-3,2.6L48.8,96.9c-1.1,0.4-2.1,0.6-3.3,0.6c-0.9,0-2-0.1-3-0.4l-20.8-7 c-0.7-0.2-1.2-1.1-0.8-1.8c0.2-0.7,1.1-1.2,1.8-0.8l20.7,6.9c1.4,0.4,2.8,0.4,4.2-0.1l27.1-10.1c0.6-0.2,1.2-0.7,1.5-1.3 c0.2-0.4,0.3-0.8,0.3-1.4c-0.1-1.5-1.4-2.5-2.8-2.4l-18.9,1.5c-0.9,1.2-2.3,1.9-3.9,1.9l-15.1,0c-0.7,0-1.4-0.6-1.4-1.4 c0-0.7,0.6-1.4,1.4-1.4h15.1c0.8,0,1.7-0.5,1.9-1.4c0.3-1.1-0.2-2.2-1.3-2.6h-0.1L36,71.4c-1.4-0.4-3-0.4-4.4-0.2l-9.2,1.6 c-0.7,0.1-1.5-0.4-1.6-1.2c-0.1-0.7,0.4-1.5,1.2-1.6l9.2-1.6c1.9-0.3,3.8-0.2,5.6,0.3l15.6,4.3c2.1,0.7,3.4,2.6,3.4,4.7l17.7-1.4 C76.5,76,79.1,78.2,79.4,81.2L79.4,81.2z M24.8,38.4v-7l-3.3-4.1c-1.6-2-1.8-4.7-0.5-7l1.9-3.3c1.3-2.2,3.7-3.4,6.1-3.1l5.2,0.7 l6.1-3.5l1.9-4.9c0.9-2.3,3.2-3.9,5.7-3.9h3.9c2.5,0,4.9,1.6,5.7,4l1.9,4.9l6.1,3.5l5.2-0.7c2.5-0.3,5,0.8,6.2,3.1l1.9,3.4 c1.3,2.2,1.1,5-0.5,7l-3.2,4l0,6.9l3.3,4c1.6,2,1.8,4.7,0.5,7l-1.9,3.3c-1.3,2.2-3.7,3.4-6.2,3.1L65.7,55l-6,3.5l-1.9,4.9 c-0.9,2.4-3.2,3.9-5.7,3.9h-4c-2.5,0-4.9-1.6-5.7-4l-1.9-4.7L34.3,55l-5.2,0.7c-2.5,0.3-5-0.8-6.2-3.1L21,49.3c-1.3-2.2-1.1-5,0.5-7 L24.8,38.4z M54,21c0-2.2-1.8-4-4-4s-4,1.8-4,4s1.8,4,4,4S54,23.2,54,21z M27.7,30.9v8c0,0.3-0.1,0.6-0.3,0.8l-3.5,4.4 c-0.8,1.1-0.9,2.6-0.3,3.8l1.9,3.4c0.6,1.2,2,1.8,3.4,1.6l5.6-0.8h0.2c0.2,0,0.5,0.1,0.7,0.2l5.7,3.3v-7.2l-5.6-3.7 c-0.4-0.2-0.6-0.7-0.6-1.2v-5c-2.3-0.6-4.1-2.7-4.1-5.4c0-3.1,2.5-5.6,5.6-5.6c3.1,0,5.6,2.5,5.6,5.6c0,2.5-1.8,4.7-4.1,5.4v4.2 l5.6,3.7c0.4,0.2,0.6,0.7,0.6,1.2v11.4c0,0.1,0,0.2-0.1,0.3l1.2,3c0.5,1.3,1.7,2.1,3.1,2.1h0.4l0-36.7c-3.1-0.6-5.5-3.4-5.5-6.8 c0-3.8,3.1-6.9,6.9-6.9s6.9,3.1,6.9,6.9c0,3.3-2.3,6.1-5.5,6.8v36.6h0.7c1.4,0,2.6-0.8,3.1-2.1l0.7-1.9v-0.1V47.6 c0-0.4,0.2-0.9,0.6-1.2l5.6-3.7v-4.2c-2.3-0.6-4.1-2.7-4.1-5.4c0-3.1,2.5-5.6,5.6-5.6c3.1,0,5.6,2.5,5.6,5.6c0,2.5-1.8,4.7-4.1,5.4 v5c0,0.4-0.2,0.9-0.6,1.2l-5.6,3.7v7.3l6-3.5c0.3-0.2,0.6-0.2,0.9-0.2l5.6,0.8c1.4,0.2,2.6-0.4,3.3-1.7l1.9-3.3 c0.7-1.2,0.6-2.7-0.2-3.8l-3.6-4.4c-0.2-0.2-0.3-0.5-0.3-0.8v-8c0-0.3,0.1-0.6,0.3-0.8l3.5-4.4c0.8-1.1,0.9-2.6,0.3-3.8l-1.9-3.4 c-0.6-1.2-2-1.8-3.4-1.6l-5.6,0.8c-0.3,0-0.6,0-0.9-0.2l-7-4c-0.3-0.2-0.5-0.4-0.6-0.7l-2-5.3c-0.5-1.3-1.7-2.1-3.1-2.1h-3.9 c-1.4,0-2.6,0.8-3.1,2.1l-2,5.2c-0.1,0.3-0.3,0.6-0.6,0.8l-7.2,4.2c-0.3,0.1-0.6,0.2-0.9,0.2l-5.6-0.8c-1.4-0.2-2.6,0.4-3.3,1.7 l-1.9,3.3c-0.7,1.2-0.6,2.7,0.2,3.8l3.6,4.4C27.6,30.3,27.7,30.6,27.7,30.9L27.7,30.9z M66.3,33.1c0-1.5-1.3-2.7-2.7-2.7 c-1.5,0-2.7,1.3-2.7,2.7c0,1.5,1.3,2.7,2.7,2.7C65,35.9,66.3,34.6,66.3,33.1z M39.1,33.1c0-1.5-1.3-2.7-2.7-2.7 c-1.5,0-2.7,1.3-2.7,2.7c0,1.5,1.3,2.7,2.7,2.7C37.8,35.9,39.1,34.6,39.1,33.1z"></path></svg>