<svg xmlns="http://www.w3.org/2000/svg" x="0px" y="0px" viewBox="0 0 100 100" style="enable-background:new 0 0 100 100;" xml:space="preserve"><g>	<path d="M30.2,31.7l13.5-8v-8L22.9,3.5L2.5,15.4l-0.4,0.3V40l20.6,11.9l0.4,0.2l7.1-4V31.7z M22.9,49.6L4.1,38.9v-21l18.8,10.8  V49.6z M5,16.2L23.2,5.7l18.7,10.8L23.7,27l0,0L5,16.2z"></path>	<path d="M76.8,3.5L56.5,15.4l-0.2,0.3v8l13.5,8v16.4l6.6,3.8l0.5,0.2l21-12.1V15.7L76.8,3.5z M76.3,27L58.1,16.5L76.8,5.7L95,16.2  L76.3,27z M95.9,38.9L77.1,49.6v-21l18.8-10.8V38.9z"></path>	<path d="M64.3,58.3L50,66.5l-14.3-8.3l-6.2,3.6l-0.3,0.3v24.2l20.5,11.9l0.4,0.2l20.8-12.1V62.1L64.3,58.3z M49,95.7L31.2,85.3  V63.7L49,74.2V95.7z M68.8,85.3L51,95.7V74.2l17.7-10.5V85.3z"></path>	<polygon points="68.8,33.4 68.8,32.3 68,31.7 49.9,42.2 32,31.7 31.2,32.3 31.2,33.4 49,43.8 49,64.7 50,65.3 51,64.7 51,43.8  "></polygon></g></svg>