<svg xmlns="http://www.w3.org/2000/svg" x="0px" y="0px" viewBox="0 0 100 100" style="enable-background:new 0 0 100 100;" xml:space="preserve"><g>	<path d="M50,97.5C23.8,97.5,2.5,76.2,2.5,50S23.8,2.5,50,2.5S97.5,23.8,97.5,50S76.2,97.5,50,97.5z M50,10.1  C28,10.1,10.1,28,10.1,50S28,89.9,50,89.9S89.9,72,89.9,50S72,10.1,50,10.1z"></path>	<path d="M50,82.8c-2.8,0-5-2.3-5-5V49.4c0-2.8,2.3-5,5-5c2.8,0,5,2.3,5,5v28.4C55,80.5,52.8,82.8,50,82.8z"></path>	<ellipse cx="50" cy="28.2" rx="7.6" ry="7.6"></ellipse></g></svg>