<svg xmlns="http://www.w3.org/2000/svg" xmlns:xlink="http://www.w3.org/1999/xlink" id="Layer_1" x="0px" y="0px" viewBox="0 0 80 80" style="enable-background:new 0 0 80 80;" xml:space="preserve"><path d="M78.7,10.7H1.3C0.5,10.7,0,11.2,0,12v56c0,0.8,0.5,1.3,1.3,1.3h77.3c0.8,0,1.3-0.5,1.3-1.3V12C80,11.2,79.5,10.7,78.7,10.7z  M77.3,13.3v8H2.7v-8H77.3z M2.7,66.7V24h74.7v42.7H2.7z M32.3,31.9L19.1,45.1l13.2,13.2c0.5,0.5,0.5,1.3,0,1.9 c-0.3,0.3-0.7,0.4-0.9,0.4c-0.3,0-0.7-0.1-0.9-0.4L16.3,46c-0.5-0.5-0.5-1.3,0-1.9L30.4,30c0.5-0.5,1.3-0.5,1.9,0 C32.8,30.5,32.8,31.3,32.3,31.9z M63.7,44.1c0.5,0.5,0.5,1.3,0,1.9L49.6,60.1c-0.3,0.3-0.7,0.4-0.9,0.4c-0.3,0-0.7-0.1-0.9-0.4 c-0.5-0.5-0.5-1.3,0-1.9l13.2-13.2L47.7,31.9c-0.5-0.5-0.5-1.3,0-1.9c0.5-0.5,1.3-0.5,1.9,0L63.7,44.1z M44.7,31.3l-6.7,28 c-0.1,0.7-0.7,1.1-1.3,1.1c-0.1,0-0.3,0-0.3,0c-0.7-0.1-1.2-0.9-0.9-1.6l6.7-28c0.1-0.7,0.9-1.2,1.6-0.9 C44.4,29.9,44.8,30.5,44.7,31.3z M6.5,17.3c0-1.2,0.9-2.1,2.1-2.1s2,1.1,2,2.1c0,1.2-0.9,2.1-2.1,2.1S6.5,18.5,6.5,17.3z M13.1,17.3 c0-1.2,0.9-2.1,2.1-2.1s2.1,0.9,2.1,2.1c0,1.2-0.9,2.1-2.1,2.1S13.1,18.5,13.1,17.3z M19.6,17.3c0-1.2,0.9-2.1,2.1-2.1 s2.1,0.9,2.1,2.1c0,1.2-0.9,2.1-2.1,2.1S19.6,18.5,19.6,17.3z"></path></svg>