<svg xmlns="http://www.w3.org/2000/svg" x="0px" y="0px" viewBox="0 0 100 100" style="enable-background:new 0 0 100 100;" xml:space="preserve"><g>	<path d="M96.3,60.4c-2.8,12.4-10.2,22.9-21,29.7C67.7,95,59,97.5,50.1,97.5c-3.5,0-7-0.4-10.5-1.2c-12.4-2.8-22.9-10.2-29.7-21  c-6.8-10.7-9-23.4-6.2-35.8c2.8-12.4,10.2-22.9,21-29.7c9.5-6,20.9-8.4,32-6.9c0.9,0.1,1.6,1,1.4,1.9c-0.1,0.9-1,1.6-1.9,1.4  c-10.3-1.4-20.9,0.8-29.7,6.4C16.5,19,9.5,28.8,7,40.3c-2.6,11.5-0.5,23.3,5.8,33.3C19,83.5,28.8,90.5,40.3,93  c11.5,2.6,23.3,0.6,33.3-5.8c20.6-13,26.7-40.3,13.7-60.9c-4.2-6.7-10-12-17-15.6l1.7,3.6c0.4,0.8,0,1.9-0.8,2.2  c-0.2,0.1-0.5,0.2-0.7,0.2c-0.6,0-1.2-0.4-1.5-1l-3.7-7.8c-0.2-0.4-0.2-0.9,0-1.4c0.2-0.4,0.6-0.8,1-0.9l8.2-2.6  c0.9-0.3,1.8,0.2,2.1,1.1c0.3,0.9-0.2,1.8-1.1,2.1l-4,1.3c7.6,3.9,14,9.7,18.6,17C96.9,35.3,99.1,48,96.3,60.4z"></path>	<path d="M50,14.3c-20.1,0-36.4,16.3-36.4,36.4c0,20.1,16.4,36.4,36.4,36.4s36.4-16.4,36.4-36.4C86.4,30.6,70.1,14.3,50,14.3z   M50,82.9c-17.8,0-32.2-14.5-32.2-32.2S32.2,18.5,50,18.5s32.2,14.5,32.2,32.2S67.8,82.9,50,82.9z"></path>	<path d="M63.6,60c0,6.1-4.3,11.1-10,12.3V75c0,2-1.6,3.5-3.5,3.5s-3.5-1.6-3.5-3.5v-2.5C43.1,72,40,70.2,38,67.4  c-1.1-1.6-0.8-3.8,0.8-4.9c1.6-1.1,3.8-0.8,4.9,0.8c1,1.4,2.7,2.3,4.5,2.3H51c3,0,5.5-2.5,5.5-5.5c0-3-2.5-5.5-5.5-5.5h-2  c-6.9,0-12.6-5.6-12.6-12.6c0-6,4.3-11.1,10-12.3v-2.6c0-2,1.6-3.5,3.5-3.5s3.5,1.6,3.5,3.5v2.5c3.4,0.5,6.4,2.3,8.5,5.1  c1.2,1.6,0.8,3.8-0.8,4.9c-1.6,1.2-3.8,0.8-4.9-0.8c-1-1.4-2.7-2.3-4.5-2.3H49c-3,0-5.5,2.5-5.5,5.5c0,3,2.5,5.5,5.5,5.5h2  C57.9,47.5,63.6,53.1,63.6,60z"></path></g></svg>