<svg xmlns="http://www.w3.org/2000/svg" x="0px" y="0px" viewBox="0 0 100 100" style="enable-background:new 0 0 100 100;" xml:space="preserve"><g>	<path d="M29.3,12.9H14.5c-0.9,0-1.6,0.7-1.6,1.6v17.8c0,0.9,0.7,1.6,1.6,1.6c0.9,0,1.6-0.7,1.6-1.6V16h13.2l-1.5,1.5  c-0.6,0.6-0.6,1.6,0,2.2c0.6,0.6,1.6,0.6,2.2,0l4.2-4.2c0.6-0.6,0.6-1.6,0-2.2L30,9.1c-0.6-0.6-1.6-0.6-2.2,0  c-0.6,0.6-0.6,1.6,0,2.2L29.3,12.9z"></path>	<path d="M70.7,84l1.5-1.5c0.6-0.6,0.6-1.6,0-2.2s-1.6-0.6-2.2,0l-4.2,4.2c-0.6,0.6-0.6,1.6,0,2.2l4.2,4.2c0.6,0.6,1.6,0.6,2.2,0  c0.6-0.6,0.6-1.6,0-2.2l-1.5-1.5h14.8c0.9,0,1.6-0.7,1.6-1.6V67.8c0-0.9-0.7-1.6-1.6-1.6c-0.9,0-1.6,0.7-1.6,1.6V84L70.7,84z"></path>	<path d="M12.9,71.6v14c0,0.9,0.7,1.6,1.6,1.6h17.8c0.9,0,1.6-0.7,1.6-1.6c0-0.9-0.7-1.6-1.6-1.6H16V71.6l1.5,1.5  c0.6,0.6,1.6,0.6,2.2,0c0.6-0.6,0.6-1.6,0-2.2l-4.2-4.2C15,66,14,66,13.3,66.7l-4.2,4.2c-0.6,0.6-0.6,1.6,0,2.2  c0.6,0.6,1.6,0.6,2.2,0L12.9,71.6z"></path>	<path d="M50,70.6c-7.4,0-13.4,6-13.4,13.4c0,7.4,6,13.4,13.4,13.4s13.4-6,13.4-13.4C63.4,76.7,57.4,70.6,50,70.6z M50,73.8  c5.7,0,10.3,4.6,10.3,10.3c0,5.7-4.6,10.3-10.3,10.3s-10.3-4.6-10.3-10.3C39.7,78.4,44.3,73.8,50,73.8z"></path>	<path d="M50,2.5c-7.4,0-13.4,6-13.4,13.4c0,7.4,6,13.4,13.4,13.4s13.4-6,13.4-13.4C63.4,8.5,57.4,2.5,50,2.5z M50,5.7  c5.7,0,10.3,4.6,10.3,10.3c0,5.7-4.6,10.3-10.3,10.3s-10.3-4.6-10.3-10.3C39.7,10.3,44.3,5.7,50,5.7z"></path>	<path d="M70.6,50c0,7.4,6,13.4,13.4,13.4c7.4,0,13.4-6,13.4-13.4s-6-13.4-13.4-13.4C76.7,36.6,70.6,42.6,70.6,50z M73.8,50  c0-5.7,4.6-10.3,10.3-10.3c5.7,0,10.3,4.6,10.3,10.3s-4.6,10.3-10.3,10.3C78.4,60.3,73.8,55.7,73.8,50z"></path>	<path d="M2.5,50c0,7.4,6,13.4,13.4,13.4c7.4,0,13.4-6,13.4-13.4s-6-13.4-13.4-13.4C8.5,36.6,2.5,42.6,2.5,50z M5.7,50  c0-5.7,4.6-10.3,10.3-10.3c5.7,0,10.3,4.6,10.3,10.3s-4.6,10.3-10.3,10.3C10.3,60.3,5.7,55.7,5.7,50z"></path>	<path d="M84,28.2l-1.5-1.5c-0.6-0.6-1.6-0.6-2.2,0c-0.6,0.6-0.6,1.6,0,2.2l4.2,4.2c0.6,0.6,1.6,0.6,2.2,0l4.2-4.2  c0.6-0.6,0.6-1.6,0-2.2c-0.6-0.6-1.6-0.6-2.2,0l-1.5,1.5V14.5c0-0.9-0.7-1.6-1.6-1.6H67.8c-0.9,0-1.6,0.7-1.6,1.6  c0,0.9,0.7,1.6,1.6,1.6H84L84,28.2z"></path>	<path d="M39.8,50.8l6.3,6.3c0.6,0.6,1.6,0.6,2.2,0L63,42.4c0.6-0.6,0.6-1.6,0-2.2c-0.6-0.6-1.6-0.6-2.2,0L47.2,53.7L42,48.5  c-0.6-0.6-1.6-0.6-2.2,0C39.2,49.1,39.2,50.1,39.8,50.8L39.8,50.8z"></path></g></svg>