<svg xmlns="http://www.w3.org/2000/svg" x="0px" y="0px" viewBox="0 0 100 100" style="enable-background:new 0 0 100 100;" xml:space="preserve"><g>	<path d="M2.5,8.7c0.4-0.1,0.7-0.1,1-0.1c12.8,0,25.7,0,38.5,0c0.4,0,0.7,0,1.1,0c0,0.3,0.1,0.6,0.1,0.8c0,14,0.3,28-0.1,41.9  C42.7,65.5,36.4,76.5,25,84.5c-6.5,4.5-13.9,6.7-21.8,6.9c-0.3,0-0.5,0-0.7,0c0-4.6,0-9.2,0-13.8c1.3-0.1,2.7-0.1,4-0.3  c11.4-1.7,20.5-10.5,22.7-22c0.4-1.7,0.4-3.4,0.6-5.3c-9.3,0-18.2,0-27.2,0C2.5,36.2,2.5,22.4,2.5,8.7z"></path>	<path d="M97.5,52.6c-0.3,1.7-0.4,3.4-0.7,5c-2,10.7-7.4,19.3-16,25.7c-6.8,5.1-14.5,7.7-23,7.9c-0.3,0-0.5,0-0.7,0  c-0.1,0-0.1,0-0.2-0.1c0-4.5,0-9,0-13.6c9.3-0.3,16.8-4.2,22.2-11.9c3.3-4.6,4.7-9.8,4.8-15.7c-9,0-18,0-27,0c0-13.9,0-27.6,0-41.4  c0.3,0,0.6,0,0.8,0c13,0,26,0,39,0c0.3,0,0.5,0,0.7,0.1C97.5,23.4,97.5,38,97.5,52.6z"></path></g></svg>