<svg xmlns="http://www.w3.org/2000/svg" x="0px" y="0px" viewBox="0 0 100 100" style="enable-background:new 0 0 100 100;" xml:space="preserve"><g>	<path d="M22.5,58.2c0.6,1.9,1.3,3.8,2.3,5.5l-4.1,4.1c-0.7,0.7-0.7,1.8,0,2.5l9.1,9.1c0.4,0.4,0.8,0.5,1.2,0.5s0.9-0.2,1.2-0.5  l5.1-5.1c0.7-0.7,0.7-1.8,0-2.5c-0.7-0.7-1.8-0.7-2.5,0L31,75.7l-6.6-6.6l3.8-3.8c0,0,0.1-0.1,0.1-0.1c0.1-0.1,0.1-0.2,0.2-0.3  c0.1-0.1,0.1-0.2,0.1-0.3c0-0.1,0.1-0.2,0.1-0.3c0-0.1,0-0.2,0-0.3c0-0.1,0-0.2-0.1-0.3c0-0.1-0.1-0.2-0.1-0.3c0,0,0-0.1-0.1-0.1  c-1.3-2.2-2.3-4.6-2.9-7.1c0-0.1-0.1-0.1-0.1-0.1c0-0.1-0.1-0.2-0.2-0.3c-0.1-0.1-0.1-0.2-0.2-0.3c-0.1-0.1-0.2-0.2-0.2-0.2  s-0.2-0.1-0.3-0.2c-0.1-0.1-0.2-0.1-0.3-0.1c-0.1,0-0.2-0.1-0.4-0.1c-0.1,0-0.1,0-0.1,0h-5.4v-9.3h5.4c0.2,0,0.4-0.1,0.6-0.1  c0.1,0,0.1-0.1,0.2-0.1c0.1-0.1,0.2-0.1,0.4-0.2c0.1-0.1,0.1-0.1,0.2-0.2c0.1-0.1,0.2-0.2,0.2-0.3c0-0.1,0.1-0.2,0.1-0.2  c0-0.1,0.1-0.1,0.1-0.2c0.6-2.5,1.6-4.9,2.9-7.1c0,0,0-0.1,0.1-0.1c0.1-0.1,0.1-0.2,0.1-0.3c0-0.1,0.1-0.2,0.1-0.3v-0.3  c0-0.1,0-0.2-0.1-0.3s-0.1-0.2-0.1-0.3c-0.1-0.1-0.1-0.2-0.2-0.3c0,0,0-0.1-0.1-0.1l-3.8-3.8l6.6-6.6l3.8,3.8  c0.2,0.2,0.3,0.3,0.5,0.4c0,0,0.1,0,0.1,0.1c0.2,0.1,0.4,0.1,0.6,0.1c0.2,0,0.4-0.1,0.6-0.1c0.1,0,0.1,0,0.2-0.1  c0.1,0,0.1,0,0.2-0.1c2.2-1.3,4.6-2.3,7.1-2.9c0.1,0,0.1-0.1,0.1-0.1c0.1,0,0.2-0.1,0.3-0.2c0.1-0.1,0.2-0.1,0.3-0.2  c0.1-0.1,0.2-0.2,0.2-0.2s0.1-0.2,0.2-0.3c0.1-0.1,0.1-0.2,0.1-0.3c0-0.1,0.1-0.2,0.1-0.4c0-0.1,0-0.1,0-0.1v-5.4h9.3v5.4  c0,0,0,0.1,0,0.1c0,0.1,0,0.2,0.1,0.4c0,0.1,0.1,0.2,0.1,0.3c0.1,0.1,0.1,0.2,0.2,0.3c0.1,0.1,0.1,0.2,0.2,0.2  c0.1,0.1,0.2,0.1,0.3,0.2l0.3,0.2c0.1,0,0.1,0.1,0.1,0.1c2.5,0.6,4.9,1.6,7.1,2.9c0.1,0,0.1,0.1,0.2,0.1c0.1,0,0.1,0.1,0.2,0.1  c0.2,0.1,0.4,0.1,0.6,0.1s0.4-0.1,0.6-0.1c0,0,0.1,0,0.1-0.1c0.2-0.1,0.4-0.2,0.5-0.4l3.8-3.8l6.6,6.6l-3.8,3.8  c-0.7,0.7-0.7,1.8,0,2.5c0.4,0.4,0.8,0.5,1.2,0.5s0.9-0.2,1.2-0.5l5.1-5.1c0.3-0.3,0.5-0.8,0.5-1.2s-0.2-0.9-0.5-1.2l-9.1-9.1  c-0.3-0.3-0.8-0.5-1.2-0.5c-0.5,0-0.9,0.2-1.2,0.5l-4.1,4.1c-1.8-0.9-3.6-1.7-5.5-2.3v-5.9c0-1-0.8-1.8-1.8-1.8H43.6  c-1,0-1.8,0.8-1.8,1.8v5.9c-1.9,0.6-3.8,1.3-5.5,2.3l-4.1-4.1c-0.7-0.7-1.8-0.7-2.5,0l-9.1,9.1c-0.3,0.3-0.5,0.8-0.5,1.2  s0.2,0.9,0.5,1.2l4.1,4.1c-0.9,1.8-1.7,3.6-2.3,5.5h-5.9c-1,0-1.8,0.8-1.8,1.8v12.8c0,1,0.8,1.8,1.8,1.8L22.5,58.2L22.5,58.2z"></path>	<path d="M50,35.9c2.2,0,4.4,0.5,6.4,1.5c0.9,0.4,1.9,0.1,2.4-0.8c0.4-0.9,0.1-1.9-0.8-2.4c-2.5-1.3-5.2-1.9-8-1.9  c-9.7,0-17.6,7.9-17.6,17.6c0,3.5,1,6.9,3,9.8c0.3,0.5,0.9,0.8,1.5,0.8c0.3,0,0.7-0.1,1-0.3c0.8-0.5,1-1.6,0.5-2.4  c-1.5-2.3-2.4-5-2.4-7.8C36,42.2,42.3,35.9,50,35.9L50,35.9z"></path>	<path d="M19,18.9C35.1,2.8,60.8,1.9,78.1,16.2l-3.3,0.2c-1,0.1-1.7,0.9-1.7,1.9c0.1,0.9,0.8,1.7,1.8,1.7H75l7.4-0.5  c0.1,0,0.2-0.1,0.2-0.1c0.1,0,0.2-0.1,0.4-0.1s0.2-0.1,0.3-0.2c0.1-0.1,0.1-0.1,0.2-0.1c0,0,0,0,0-0.1c0.1-0.1,0.1-0.2,0.2-0.3  c0.1-0.1,0.1-0.2,0.2-0.3c0-0.1,0-0.2,0.1-0.3c0-0.1,0.1-0.2,0.1-0.4v-0.1l-0.5-7.4c-0.1-1-0.9-1.7-1.9-1.7c-1,0.1-1.7,0.9-1.7,1.9  l0.2,3.1C71.8,6.4,61.2,2.5,50,2.5c-12.7,0-24.6,4.9-33.5,13.9C4.9,27.9,0.2,44.3,3.7,60.3c0.2,0.8,0.9,1.4,1.7,1.4  c0.1,0,0.3,0,0.4,0c0.9-0.2,1.5-1.1,1.3-2.1C3.9,44.7,8.3,29.6,19,18.9L19,18.9z"></path>	<path d="M93,59.2c-0.2,0.9,0.4,1.9,1.4,2.1c0.1,0,0.2,0,0.4,0c0.8,0,1.5-0.6,1.7-1.4c1.4-6.6,1.4-13.6-0.1-20.2  c-0.2-0.9-1.1-1.5-2.1-1.3c-0.9,0.2-1.5,1.1-1.3,2.1C94.3,46.6,94.3,53,93,59.2L93,59.2z"></path>	<path d="M64,91.6c-14.6,4.9-30.3,1.9-42-7.8l3.3-0.2c1-0.1,1.7-0.9,1.7-1.9c-0.1-1-0.9-1.7-1.9-1.7l-7.4,0.5  c-0.1,0-0.2,0.1-0.3,0.1c-0.1,0-0.2,0-0.3,0.1c-0.1,0.1-0.2,0.2-0.4,0.2c-0.1,0-0.1,0.1-0.2,0.1c0,0,0,0,0,0  c-0.1,0.1-0.2,0.3-0.3,0.4c0,0.1-0.1,0.1-0.1,0.2c-0.1,0.1-0.1,0.3-0.1,0.4c0,0.1,0,0.2,0,0.3v0.1l0.5,7.4c0.1,0.9,0.8,1.7,1.8,1.7  h0.1c1-0.1,1.7-0.9,1.7-1.9l-0.2-3.1c8.6,7.1,19.2,10.9,30.1,10.9c5.1,0,10.2-0.8,15.2-2.5c0.9-0.3,1.4-1.3,1.1-2.2  C66,91.8,65,91.3,64,91.6L64,91.6z"></path>	<path d="M65.7,46.3C55.9,46.3,48,54.2,48,64s7.9,17.7,17.7,17.7S83.4,73.7,83.4,64S75.4,46.3,65.7,46.3z M65.7,78.1  c-7.8,0-14.2-6.4-14.2-14.2s6.4-14.2,14.2-14.2S79.9,56.1,79.9,64S73.5,78.1,65.7,78.1z"></path>	<path d="M95.9,88.2L89.7,82c-0.7-0.7-1.8-0.7-2.5,0l-1.4,1.4L83,80.6c4.1-4.3,6.7-10.2,6.7-16.6c0-13.3-10.8-24-24-24  s-24,10.8-24,24s10.8,24,24,24c5.6,0,10.6-1.9,14.7-5.1l2.9,2.9l-1.4,1.4c-0.3,0.3-0.5,0.8-0.5,1.2s0.2,0.9,0.5,1.2l6.2,6.1  c1.1,1.1,2.4,1.6,3.8,1.6c1.4,0,2.8-0.5,3.8-1.6l0.1-0.1C98,93.7,98,90.3,95.9,88.2L95.9,88.2z M45.2,64c0-11.3,9.2-20.5,20.5-20.5  S86.3,52.7,86.3,64S77,84.5,65.7,84.5S45.2,75.3,45.2,64z M93.4,93.4L93.4,93.4c-0.8,0.8-2,0.8-2.8,0.1l-4.9-4.9l2.8-2.8l4.9,4.9  C94.2,91.4,94.2,92.6,93.4,93.4L93.4,93.4z"></path></g></svg>