<svg xmlns="http://www.w3.org/2000/svg" x="0px" y="0px" viewBox="0 0 100 100" style="enable-background:new 0 0 100 100;" xml:space="preserve"><path d="M37.7,76.1h24.5c2.3,0,4.4-0.9,5.9-2.4c1.5-1.5,2.5-3.6,2.5-5.9v-20c0-1.3-0.5-2.5-1.4-3.3l-0.1-0.1 c-0.8-0.8-1.9-1.2-3.1-1.3H34c-1.3,0-2.4,0.5-3.2,1.4c-0.8,0.9-1.4,2-1.4,3.3v20c0,2.3,0.9,4.4,2.4,5.9 C33.4,75.1,35.4,76.1,37.7,76.1L37.7,76.1z M19.4,76.5c0.6,0.6,0.5,1.6-0.1,2.2c-0.6,0.6-1.6,0.5-2.2-0.1c-1.8-2.1-3.3-4.3-4.4-6.7 c-1.1-2.5-1.7-5.1-1.7-7.9V16.4c0-0.7,0.5-1.3,1.1-1.5L50,2.6c0.4-0.1,0.7-0.1,1.1,0l36.9,12.2c0.6,0.2,1.1,0.8,1,1.5l0,47.6 c0,8.7-5.9,15.7-13.5,21.1c-7.3,5.3-16.3,9.1-22.8,11.5l-2.2,0.8c-0.4,0.1-0.7,0.1-1.1,0l-2.2-0.8c-2.9-1.1-6.2-2.4-9.6-4 c-3.5-1.6-7.1-3.5-10.5-5.7c-0.7-0.5-0.9-1.4-0.5-2.1c0.5-0.7,1.4-0.9,2.1-0.5c3.3,2.1,6.7,3.9,10.1,5.5c3.4,1.6,6.7,2.9,9.4,3.9 l1.6,0.6l1.6-0.6c6.3-2.4,15-6.1,22.1-11.1c6.9-4.9,12.2-11.1,12.2-18.6l0-46.5L50.5,5.6L14.1,17.5v46.4c0,2.4,0.5,4.6,1.4,6.6 C16.4,72.7,17.8,74.6,19.4,76.5L19.4,76.5z M23.9,80.7c0.7,0.5,0.7,1.5,0.2,2.2c-0.5,0.7-1.5,0.7-2.2,0.2L21.9,83 c-0.7-0.5-0.7-1.5-0.2-2.2C22.2,80.2,23.1,80.1,23.9,80.7L23.9,80.7z M52.6,63.2v5.2c0,1.5-1.2,2.6-2.6,2.6c-1.5,0-2.6-1.2-2.6-2.6 v-5.2c-1.1-0.4-2-1-2.8-1.8c-1.4-1.4-2.3-3.3-2.3-5.5c0-2.1,0.9-4.1,2.3-5.5c1.4-1.4,3.3-2.3,5.5-2.3c2.1,0,4.1,0.9,5.5,2.3 c1.4,1.4,2.3,3.3,2.3,5.5c0,2.1-0.9,4.1-2.3,5.5C54.7,62.2,53.7,62.8,52.6,63.2z M51.8,54.1c-0.4-0.4-1.1-0.7-1.8-0.7 s-1.3,0.3-1.8,0.7c-0.4,0.4-0.7,1.1-0.7,1.8s0.3,1.3,0.7,1.8c0.4,0.4,1,0.7,1.7,0.7h0.2c0.7,0,1.3-0.3,1.7-0.7 c0.4-0.4,0.7-1.1,0.7-1.8S52.2,54.6,51.8,54.1L51.8,54.1z M31.4,38.1v-5.3c0-5.1,2.1-9.8,5.5-13.1c3.4-3.4,8-5.5,13.1-5.5 c5.1,0,9.7,2.1,13.1,5.5c3.4,3.4,5.5,8,5.5,13.1v5.3c1.6,0.4,3.1,1.3,4.2,2.4l0.2,0.2c1.8,1.8,2.9,4.3,2.9,7v20c0,3.7-1.5,7.1-4,9.6 l0,0c-2.5,2.5-5.9,4-9.6,4H37.7c-3.7,0-7.1-1.5-9.6-4l0,0c-2.5-2.5-4-5.9-4-9.6v-20c0-2.7,1.1-5.2,2.9-7 C28.3,39.5,29.8,38.6,31.4,38.1L31.4,38.1z M63.3,37.8v-4.9c0-3.7-1.5-7-3.9-9.4C57,21,53.7,19.5,50,19.5c-3.7,0-7,1.5-9.4,3.9 c-2.4,2.4-3.9,5.7-3.9,9.4v4.9H63.3z"></path></svg>