<svg xmlns:sketch="http://www.bohemiancoding.com/sketch/ns" xmlns="http://www.w3.org/2000/svg" x="0px" y="0px" viewBox="0 0 100 100" style="enable-background:new 0 0 100 100;" xml:space="preserve"><g>	<g transform="translate(496.000000, 228.000000)" sketch:type="MSLayerGroup">		<path sketch:type="MSShapeGroup" d="M-404.3-179.6c1.6,0,2.8-1.3,2.8-2.8v-22.6c0-1.6-1.3-2.8-2.8-2.8h-2.8v-5.7   c0-6.2-5.1-11.3-11.3-11.3c-6.2,0-11.3,5.1-11.3,11.3v5.7h-2.8c-1.6,0-2.8,1.3-2.8,2.8v22.6c0,1.6,1.3,2.8,2.8,2.8H-404.3z    M-424.1-207.9v-5.7c0-3.1,2.5-5.7,5.7-5.7c3.1,0,5.7,2.5,5.7,5.7v5.7H-424.1z"></path>		<path sketch:type="MSShapeGroup" d="M-401.9-177.7l-5.4,21.5h-56v3.6h57.4c0.8,0,1.5-0.6,1.7-1.4l5.9-23.7H-401.9L-401.9-177.7z    M-439.4-199.2H-474v3.6h34.6V-199.2L-439.4-199.2z"></path>		<path sketch:type="MSShapeGroup" d="M-481.4-217.2l17.7,70.8l3.4-0.9l-18-72.1c-0.2-0.8-0.9-1.3-1.7-1.3h-12c-1,0-1.8,0.8-1.8,1.8   c0,1,0.8,1.8,1.8,1.8H-481.4z"></path>		<path sketch:type="MSShapeGroup" d="M-416.7-138.3v-3.6h-35.8v3.6H-416.7z"></path>		<g>			<path d="M-459.7-149c-5,0-9,4-9,9c0,5,4,9,9,9c4.9,0,9-4,9-9C-450.7-145-454.7-149-459.7-149z M-459.7-133.4    c-3.7,0-6.7-3-6.7-6.7c0-3.7,3-6.7,6.7-6.7c3.7,0,6.7,3,6.7,6.7C-453-136.4-456-133.4-459.7-133.4z"></path>			<ellipse transform="matrix(0.9239 -0.3827 0.3827 0.9239 18.6117 -186.5961)" cx="-459.7" cy="-140.1" rx="3.7" ry="3.7"></ellipse>		</g>		<g>			<path d="M-409.5-149c-5,0-9,4-9,9c0,5,4,9,9,9c4.9,0,9-4,9-9C-400.5-145-404.6-149-409.5-149z M-409.5-133.4    c-3.7,0-6.7-3-6.7-6.7c0-3.7,3-6.7,6.7-6.7c3.7,0,6.7,3,6.7,6.7C-402.8-136.4-405.8-133.4-409.5-133.4z"></path>			<ellipse transform="matrix(0.9239 -0.3827 0.3827 0.9239 22.4319 -167.3904)" cx="-409.5" cy="-140.1" rx="3.7" ry="3.7"></ellipse>		</g>	</g></g></svg>