<svg xmlns="http://www.w3.org/2000/svg" x="0px" y="0px" viewBox="0 0 100 100" style="enable-background:new 0 0 100 100;" xml:space="preserve"><path d="M81.3,95.5v-8.7c0-1.1-0.9-2-2-2h-8.4v-6.8c0-1.1-0.9-2-2-2h-11V54.8l8.9,6.5c0.3,0.3,0.8,0.4,1.2,0.4 c0.4,0,0.8-0.1,1.2-0.4c0.7-0.5,1-1.4,0.7-2.2l-6.4-19.7l16.8-12.2c0.7-0.5,1-1.4,0.7-2.2c-0.3-0.8-1-1.4-1.9-1.4H58.3L51.9,3.9 c-0.3-0.8-1-1.4-1.9-1.4s-1.6,0.6-1.9,1.4l-6.4,19.7H21c-0.9,0-1.6,0.6-1.9,1.4c-0.3,0.8,0,1.7,0.7,2.2l16.8,12.2L30.2,59 c-0.3,0.8,0,1.7,0.7,2.2c0.7,0.5,1.6,0.5,2.3,0l8.9-6.5v21.3h-11c-1.1,0-2,0.9-2,2v6.8h-8.4c-1.1,0-2,0.9-2,2v8.7c0,1.1,0.9,2,2,2 h58.6C80.4,97.5,81.3,96.6,81.3,95.5z M35.8,54.5l5-15.3c0.3-0.8,0-1.7-0.7-2.2l-13-9.4h16.1c0.9,0,1.6-0.6,1.9-1.4l5-15.3l5,15.3 c0.3,0.8,1,1.4,1.9,1.4h16.1l-13,9.4c-0.7,0.5-1,1.4-0.7,2.2l5,15.3l-13-9.4c-0.3-0.3-0.8-0.4-1.2-0.4s-0.8,0.1-1.2,0.4L35.8,54.5z  M53.9,51.9v24.2h-7.8V51.9l3.9-2.8L53.9,51.9z M33.1,80h33.7v4.8H33.1V80z M77.3,93.5H22.7v-4.8h8.4h37.7h8.4V93.5z"></path></svg>