<svg xmlns="http://www.w3.org/2000/svg" x="0px" y="0px" viewBox="0 0 100 100" style="enable-background:new 0 0 100 100;" xml:space="preserve"><g>	<g>		<g>			<path d="M36.5,83.4c31.6,22.4,52.1,7.7,56.9-5.8c1-2.9-0.7-5.8-3.6-6.5c-5.6-1.4-11.6-4.6-16.8-6.8c-2.4-1-5.3,0-6.5,2.4    l-3.9,6.5c-0.9,1.7-2.9,2.7-4.8,2.1c-4.6-1.4-11.3-4.8-20.5-14s-12.5-16.1-14-20.5c-0.5-1.9,0.3-3.9,2.1-4.8l6.5-3.8    c2.4-1.2,3.4-4.1,2.4-6.5c-2.4-5.3-5.6-11.1-6.8-16.8c-0.7-2.9-3.8-4.6-6.5-3.6C7.4,9.9-7.3,30.4,15.1,62.1    C20.9,70.4,28.3,77.6,36.5,83.4L36.5,83.4z"></path>		</g>	</g>	<g>		<g>			<path d="M51.3,49.6c-0.3,0-0.9,0-1.2-0.2c-1.2-0.5-1.9-1.5-1.9-2.7l-0.2-28.4c0-2.6,1-4.8,2.7-6.7c1.7-1.7,4.1-2.7,6.5-2.7h29.9    c5.1,0,9.2,4.1,9.2,9.2v13.3c0,5.1-4.1,9.2-9.2,9.2H61.9l-8.5,8C52.9,49.4,52,49.6,51.3,49.6z M57.3,12.3c-1.5,0-3.1,0.7-4.1,1.7    c-1,1.2-1.7,2.6-1.7,4.1l0.2,27.7l8.4-8c0.3-0.3,0.7-0.5,1.2-0.5h26c3.2,0,5.8-2.6,5.8-5.8V18.1c0-3.2-2.6-5.8-5.8-5.8H57.3z"></path>		</g>		<g>			<path d="M75.6,25.6c0.7-1.7-0.2-3.8-1.9-4.6c-1.7-0.9-3.8,0.2-4.6,1.9c-0.7,1.7,0.2,3.8,1.9,4.6C72.7,28.2,74.8,27.4,75.6,25.6z"></path>		</g>		<g>			<path d="M62.3,25.6c0.7-1.7-0.2-3.8-1.9-4.6c-1.7-0.7-3.8,0.2-4.6,1.9c-0.7,1.7,0.2,3.8,1.9,4.6C59.4,28.4,61.6,27.4,62.3,25.6z"></path>		</g>		<g>			<path d="M86.4,27.7c1.9-0.5,3.1-2.4,2.6-4.1c-0.5-1.9-2.4-3.1-4.1-2.6c-1.9,0.5-3.1,2.4-2.6,4.1C82.6,27,84.5,28,86.4,27.7z"></path>		</g>	</g></g></svg>