
<svg xmlns="http://www.w3.org/2000/svg" x="0px" y="0px"
	 viewBox="0 0 500 500" style="enable-background:new 0 0 500 500;" xml:space="preserve">
<style type="text/css">
	.wdt-favicon{fill:#DD4242;}
</style>
<path class="wdt-favicon" d="M420.5,367.7c0,0-11.6,8-34.8,24c-23.2,16-55,24.3-95.6,25H79.5V83.3h192.2c44.6,0,78.6,7.5,101.7,22.4
	c23.2,14.9,34.8,36.7,34.8,65.2c0,24-7.5,42.1-22.4,54.1c-14.9,12-36.8,19.8-65.7,23.2c31.9,2.4,56.7,8.9,74.2,19.6
	c17.5,10.6,26.3,28.7,26.3,54.1C420.5,352.4,420.5,367.7,420.5,367.7z M148,141v90.2h122.1c21.6,0,38.1-3.9,49.5-11.8
	c11.3-7.9,17-19.7,17-35.5c0-28.5-21-42.8-62.9-42.8H148z M333.7,348.1c11.2-7.2,16.7-18.4,16.7-33.5c0-16.5-6.6-28-19.8-34.5
	c-13.2-6.5-31.2-9.8-53.8-9.8H148V359h136C306,359,322.5,355.4,333.7,348.1z"/>
</svg>
