<svg xmlns="http://www.w3.org/2000/svg" x="0px" y="0px" viewBox="0 0 50 50" style="enable-background:new 0 0 50 50;" xml:space="preserve"><g>	<path d="M39.8,30.3l7.6,4.6c1.4,0.9,2.4,2.3,2.6,4c0.2,1.7-0.4,3.3-1.6,4.5c-1.5,1.5-3.2,3.2-4.5,4.4c-1.7,1.7-4.2,2.5-6.6,2l0,0  C16.7,45.4,4.4,33,0.1,12.6v0c-0.5-2.4,0.3-4.8,2-6.6l4.5-4.5C7.8,0.4,9.4-0.2,11.1,0c1.7,0.2,3.1,1.1,4,2.6l4.6,7.6  c1.3,2.1,1,4.9-0.8,6.7c-0.5,0.5-1,1-1.5,1.5c0,0,0,0,0,0c-0.5,0.5-0.6,1.1-0.5,1.7c1.8,6.7,6.2,11,13,13c0.6,0.2,1.3,0,1.8-0.5  l1.5-1.5C34.9,29.3,37.7,29,39.8,30.3L39.8,30.3z"></path></g></svg>