<svg xmlns="http://www.w3.org/2000/svg" x="0px" y="0px" viewBox="0 0 50 50" style="enable-background:new 0 0 50 50;" xml:space="preserve"><g>	<path d="M49.7,6.4c-0.2-0.2-0.5-0.3-0.8-0.3c-6.8,0.7-12,3.1-15.4,7.1s-5.1,9.6-5.1,16.8v13.3c0,0.6,0.5,1,1,1h19.3  c0.6,0,1-0.5,1-1V24.9c0-0.6-0.5-1-1-1h-9.1c0.1-2.4,0.8-4.2,2.2-5.7c1.5-1.6,4-2.9,7.4-3.8c0.4-0.1,0.8-0.5,0.8-1V7.1  C50,6.8,49.9,6.6,49.7,6.4z M48,12.7c-3.4,1-6,2.4-7.6,4.1c-1.8,1.9-2.8,4.5-2.8,7.6V25c0,0.6,0.5,1,1,1h9.1v16.3H30.3V30  c0-6.7,1.6-11.9,4.7-15.4c2.9-3.4,7.3-5.5,13-6.2V12.7z"></path>	<path d="M20.6,5.7c-6.8,0.7-12,3.1-15.4,7.1C1.7,16.7,0,22.4,0,29.5v13.3c0,0.6,0.5,1,1,1h19.3c0.6,0,1-0.5,1-1V24.5  c0-0.6-0.5-1-1-1h-9.1c0.1-2.4,0.8-4.2,2.2-5.7c1.5-1.6,4.1-2.9,7.5-3.8c0.4-0.1,0.8-0.5,0.8-1V6.7c0-0.3-0.1-0.6-0.3-0.8  C21.1,5.8,20.8,5.7,20.6,5.7z M19.7,12.3c-3.4,1-6,2.4-7.7,4.1c-1.9,1.9-2.8,4.5-2.8,7.6v0.6c0,0.6,0.5,1,1,1h9.2v16.3H2V29.5  c0-6.7,1.6-11.9,4.7-15.4c2.9-3.4,7.3-5.4,13-6.2V12.3z"></path></g></svg>