<svg xmlns="http://www.w3.org/2000/svg" x="0px" y="0px" viewBox="0 0 300 100" style="enable-background:new 0 0 300 100;" xml:space="preserve"><path d="M234.8,13.4c-0.6-3.4-2.8-6.5-5.9-8.2c-2.2-1.3-4.9-1.7-7.4-1.4c-3.1,0.4-6.1,2.1-7.9,4.7 c-1.5,2-2.4,4.6-2.3,7.2c0.1,2.7,1.1,5.4,3,7.4c1.8,2,4.3,3.4,7,3.8c2.6,0.4,5.3-0.1,7.6-1.3c2.5-1.4,4.5-3.7,5.4-6.3 C235,17.4,235.1,15.4,234.8,13.4z M230.7,21.5c-1.2,0.2-2.5-0.2-3.6,0.5c-1.2,0.7-1.4,2.2-2.5,3c-0.9,0.7-2.2,0.6-3-0.1 c-0.8-0.8-1.2-1.9-2-2.7c-0.9-0.7-2.1-0.7-3.2-0.7c-1,0.1-2.1-0.5-2.5-1.5c-0.3-0.9,0.1-1.8,0.5-2.6c0.3-0.7,0.8-1.3,0.8-2.1 c0-1.4-1.1-2.4-1.4-3.8c-0.2-1,0.6-2,1.5-2.3c1.1-0.3,2.3,0.2,3.4-0.3c0.7-0.3,1.3-0.9,1.7-1.6c0.4-0.9,1.2-1.8,2.3-2.1 c0.7-0.1,1.5,0.1,2,0.6c0.9,0.8,1.2,2.1,2.2,2.8c1,0.7,2.2,0.4,3.4,0.5c1.1,0,2.1,0.9,2.2,2c0.1,1-0.5,1.9-1,2.8 c-0.4,0.7-0.5,1.6-0.1,2.4c0.4,1,1.2,1.9,1.2,3C232.5,20.4,231.7,21.3,230.7,21.5z M120.9,54.6c3.6,1.1,7.6,0.8,11.1-0.7 c3.9-1.7,7.2-4.8,9-8.6c2.2-4.4,2.5-9.6,1-14.2c-1.3-4.2-4.3-8-8.2-10.2c-3.1-1.8-6.8-2.6-10.3-2.1c-3.6,0.4-7.1,2.1-9.7,4.6 c-3.3,3.1-5.3,7.5-5.6,12c-0.4,4.4,0.8,9,3.5,12.6C113.8,51.1,117.1,53.5,120.9,54.6z M118.8,30.9c1.2-1.5,2.9-2.5,4.8-3 c2.1-0.5,4.4-0.1,6.3,1c2.3,1.4,4,3.8,4.4,6.4c0.4,2.4-0.1,5-1.5,7c-1.4,2-3.5,3.4-5.9,3.8c-2.3,0.4-4.7-0.2-6.5-1.6 c-2.2-1.6-3.5-4.2-3.7-6.9C116.5,35.2,117.3,32.7,118.8,30.9z M104,20.2c-1.2,0-2.4,0-3.7,0c-5.2,6-10.4,12.1-15.6,18.1 C79.4,32.1,74.2,25.9,69,19.7c-1.3,0-2.5,0-3.8,0c0,11.5,0,23.1,0,34.6c3.4,0,6.8,0,10.3,0c0-4,0-7.9,0-11.9 c3.1,3.4,6.1,6.8,9.2,10.2c3.1-3.3,6.3-6.7,9.4-10c0,3.9,0,7.8,0,11.8c3.3,0,6.6,0,9.9,0C104,43,104,31.6,104,20.2z M167.9,20.3 c0,5,0,9.9,0,14.9c-5.7-5-11.4-10-17.1-15c-1.2,0-2.4,0-3.5,0c0,11.5,0,23,0,34.5c3,0,6,0,9,0c0-5.2,0-10.5,0-15.7 c6,5.2,11.9,10.4,17.8,15.6c1,0,2,0,3.1,0c0-11.4,0-22.8,0-34.2C174.1,20.3,171,20.3,167.9,20.3z M181,20.5c0,2.8,0,5.5,0,8.3 c2.9,0,5.9,0,8.8,0c0,8.6,0,17.2,0,25.9c3.2,0,6.4,0,9.5,0c0-8.6,0-17.3,0-26c2.9,0,5.8,0,8.7,0c0-2.7,0-5.5,0-8.2 C199,20.5,190,20.5,181,20.5z M198.8,88.3c-2.7-0.6-5.3-2-7.1-4.2c-1.9-2.3-2.4-5.5-1.8-8.3c0.5-2.3,2.2-4.3,4.2-5.6 c2-1.2,4.3-2,6.6-2c1.9,0,3.7,0.2,5.5,0.6c0.3-2.6,0.6-5.1,0.9-7.7c-3.8-0.5-7.6-0.8-11.4-0.3c-1.8,0.2-3.6,0.6-5.1,1.5 c-1.4,0.8-2.8,1.6-4.1,2.6c-1.8,1.3-3.3,3-4.3,5c-1.5,3-2,6.4-1.9,9.8c0.1,3.2,1.3,6.3,3.2,8.8c1.8,2.4,4.2,4.3,7,5.7 c1.9,1.1,4.2,1.6,6.4,1.9c3.6,0.3,7.2,0.1,10.8-0.4c0.2-2.5,0-5,0-7.5C204.6,88.5,201.7,88.7,198.8,88.3z M103.7,87.4 c0-8.9,0-17.7,0-26.6c-3.2,0-6.3,0-9.5,0c0,11.6-0.1,23.2-0.1,34.9c5.7,0,11.4,0,17.1,0c0-2.8,0-5.5,0-8.3 C108.8,87.4,106.2,87.5,103.7,87.4z M126.9,60.8c-4.7,11.7-9.5,23.3-14.2,35c3.3,0,6.6,0,9.9,0c2.2-5,4.5-10,6.7-15c2,5,4,10,6,15 c3.5,0,6.9,0,10.3,0c-4.7-11.7-9.5-23.3-14.2-34.9C129.9,60.8,128.4,60.8,126.9,60.8z M86.2,77.5c2.4-0.9,3.8-3.2,4.3-5.6 c0.4-2.4,0.3-5.1-1-7.2c-1.4-2.3-4.1-3.5-6.7-3.7c-5.9,0-11.8,0-17.7,0c0,11.5,0,23.1,0,34.6c5.4,0,10.9,0,16.3,0 c1.8-0.1,3.5-0.6,5.1-1.4c2.1-1,3.9-2.9,4.6-5.1c0.7-2.1,0.8-4.4,0.2-6.5C90.5,80.3,88.6,78.2,86.2,77.5z M82.4,85.5 c-0.4,1.3-1.8,2.2-3.1,2.4c-1.6,0-3.2,0-4.9,0c0-2.4,0-4.7,0-7.1c1.3,0,2.6-0.1,4-0.1c1.2,0,2.4,0.3,3.3,1.2 C82.6,82.9,82.7,84.3,82.4,85.5z M82.3,72.6c-0.4,1.1-1.6,1.6-2.7,1.6c-1.6,0-3.3-0.1-4.9-0.1c0-2.3,0-4.7,0-7 c1.6,0,3.2,0.1,4.8,0.1c1.2,0,2.4,0.7,2.9,1.9C82.7,70.2,82.8,71.5,82.3,72.6z M167.7,61.5c0,5,0,9.9,0,14.9c-5.7-5-11.4-10-17.1-15 c-1.2,0-2.4,0-3.5,0c0,11.5,0,23,0,34.5c3,0,6,0,9,0c0-5.2,0-10.5,0-15.7c6,5.2,11.9,10.4,17.8,15.6c1,0,2,0,3,0 c0-11.4,0-22.8,0-34.3C173.9,61.5,170.8,61.5,167.7,61.5z"></path></svg>