<svg xmlns="http://www.w3.org/2000/svg" x="0px" y="0px" viewBox="0 0 300 100" style="enable-background:new 0 0 300 100;" xml:space="preserve"><path d="M172.5,41.8c-2.3-0.5-3,2.1-4.1,3.4c-2.8,0.1-5.7,0.1-8.5-0.1c5.5-3.8,9.9-9.7,10.7-16.5 c0.9-6.4-1.9-13.2-7-17.2c-9.6-7.7-24.9-7.3-33.8,1.2c-5.2,4.9-7,12.9-4.8,19.6c1.6,5.3,5.4,9.7,9.8,12.9c-2.8,0-5.6,0-8.4,0 c-1.2-1.3-1.8-4.1-4.2-3.5c1.2,2.3,2.4,4.6,3.6,6.9c5.7,0,11.4,0.2,17.1-0.1c-2-2.1-4.3-3.8-6.1-6c-3.8-4.4-6.3-10.1-6.3-16 c-0.1-5.3,1.9-10.8,6-14.3c6.3-5.8,17.3-5.3,23,1.2c5.9,6.5,5.9,16.8,1.7,24.2c-2.3,4.3-6,7.6-9.6,10.9c5.7,0.3,11.4,0.1,17.2,0.1 C170.1,46.5,171.3,44.1,172.5,41.8z M221.7,56.9c-6.1,12-12.1,24.1-18.3,36c2,0,3.9,0,5.9,0c1.2-2.3,2.3-4.7,3.5-7c6,0,12,0,17.9,0 c1.1,2.3,2.3,4.6,3.5,7c1.9,0,3.8,0,5.8,0v-0.2C233.8,80.9,227.9,68.8,221.7,56.9z M215.3,80.9c2.2-4.2,4.3-8.4,6.4-12.6 c2.3,4.2,4.3,8.4,6.5,12.7C223.9,81,219.6,81.1,215.3,80.9z M83.3,59.1c-7.9-2.9-17.5,1.1-21.3,8.6c-1.3,2.3-1.8,4.9-2.1,7.5v1.7 c0.4,8.8,8.1,16.7,17,16.8c8.2,0.6,16.1-5.5,18-13.5C97.2,71.5,91.9,61.7,83.3,59.1z M85.5,86c-5.4,4.5-14.6,3.1-18.3-3 c-4.6-6.6-1.3-16.9,6.4-19.3c4.8-1.7,10.6-0.1,13.8,4C91.9,73.1,91.1,81.9,85.5,86z M117.5,81.3c-3.1-7.7-6.5-15.4-9.8-23 c-4.1,11.4-7.2,23.2-11.2,34.6c1.8,0.1,3.6,0.1,5.4,0.1c2.1-6.8,4.3-13.6,6.3-20.5c3.2,7.1,6.2,14.3,9.2,21.5 c3.2-7.2,6.3-14.3,9.2-21.6c2.3,6.8,4.2,13.8,6.5,20.6c1.8,0,3.5,0,5.3,0c-3.7-11.7-7.2-23.4-11.1-35 C124.3,65.7,120.9,73.5,117.5,81.3z M204.1,74.6c-5.8,0-11.6,0-17.5,0c0,1.6,0,3.3,0,5c4,0.1,8,0,11.9,0c-1.5,5-6.3,9-11.7,9 c-5.7,0.4-11.2-3.6-12.6-9.1c-2-6.1,1.4-13.4,7.5-15.6c5.3-2.2,11.8-0.1,15,4.6c1.4-1,2.8-2,4.2-3c-4.3-5.8-12-8.9-19.1-6.9 c-7.4,1.8-13.1,9-13.2,16.6c-0.3,7.7,4.9,15.2,12.3,17.5c6.1,2,13.2,0.4,17.7-4.2C202.4,85.1,204.2,79.8,204.1,74.6z M163.6,63.9 c0-1.6,0-3.3,0-5c-6.9,0-13.8,0-20.8,0c0,11.3,0,22.7,0,34c6.9,0.1,13.8,0.1,20.8,0c0-1.6,0-3.3,0-4.9c-5.2-0.1-10.4,0-15.5,0 c0-3.2,0-6.4,0-9.5c5,0,10,0,15.1,0c0-1.7,0-3.3,0-5c-5-0.1-10,0-15.1,0c-0.1-3.2,0-6.4,0-9.6C153.2,63.9,158.4,63.9,163.6,63.9z"></path></svg>