<svg xmlns="http://www.w3.org/2000/svg" width="40" height="48" viewBox="0 0 40 48"><path d="M0.898876 9.92293L0 32.295L20.4356 47.648L39.8557 32.295L40 9.93958L20.4356 0.351562L0.898876 9.92293ZM24.0921 21.9801C24.2712 22.213 24.5353 22.3654 24.8265 22.4038C25.1177 22.4423 25.4123 22.3638 25.6457 22.1854L37.7695 12.8914L37.6363 30.2975L21.7062 23.1952L21.5453 3.38666L36.7984 10.8385L24.3196 20.4265C24.2026 20.5135 24.1039 20.6227 24.0291 20.7479C23.9543 20.8731 23.905 21.0118 23.8839 21.1561C23.8627 21.3004 23.8702 21.4474 23.906 21.5888C23.9417 21.7302 24.005 21.8632 24.0921 21.9801ZM20.4356 28.0392C20.1413 28.0392 19.859 28.1561 19.6509 28.3642C19.4428 28.5723 19.3258 28.8546 19.3258 29.1489L19.3258 44.0247L3.51228 32.1562L20.5854 25.1262L36.4267 32.184L21.5453 43.9526L21.5453 29.1489C21.5453 28.8546 21.4284 28.5723 21.2203 28.3642C21.0121 28.1561 20.7299 28.0392 20.4356 28.0392ZM3.0018 12.8193L15.2088 22.1909C15.4422 22.3693 15.7368 22.4479 16.028 22.4094C16.3192 22.3709 16.5833 22.2185 16.7624 21.9856C16.9408 21.7522 17.0193 21.4576 16.9808 21.1664C16.9424 20.8752 16.79 20.6111 16.5571 20.432L4.07269 10.8385L19.3258 3.38666L19.4757 23.2008L2.27493 30.2808L3.0018 12.8193Z"></path></svg>