<svg xmlns="http://www.w3.org/2000/svg" x="0px" y="0px" viewBox="0 0 300 100" style="enable-background:new 0 0 300 100;" xml:space="preserve"><path d="M16.3,46.9c0,1.1-0.3,1.5-1.3,1.5H7.2v-7H15c0.9,0,1.3,0.5,1.3,1.5V46.9z M23.9,61.7c-1-1-1.4-1.9-1.8-3 l-2.8-7.1c2.4-0.3,3.6-1.6,3.6-3.8v-4.9c0-2.5-1.4-4.3-4.5-4.3H0c0.2,0.8,0.4,1.5,0.4,2.9v17.2c0,1.4-0.2,2.2-0.4,3h7.6 c-0.2-0.8-0.4-1.5-0.4-3v-7.2h5.1l4,10.2H23.9z M27.6,61.7c0.2-0.8,0.4-1.5,0.4-3V41.5c0-1.4-0.2-2.2-0.4-3h7.6 c-0.2,0.8-0.4,1.5-0.4,3v17.2c0,1.4,0.2,2.2,0.4,3H27.6z M57.9,61.7H44.4c-3.1,0-4.5-1.7-4.5-4.5V43.1c0-2.8,1.4-4.5,4.5-4.5h13.5 l0.6,3.5c-0.9-0.4-1.8-0.5-3.3-0.5h-7.3c-0.8,0-1.2,0.3-1.2,1.2v14.8c0,0.9,0.5,1.2,1.2,1.2h7.3c1.4,0,2.4-0.2,3.3-0.5L57.9,61.7z  M78.5,61.7c0.2-0.8,0.4-1.5,0.4-3v-7.2h-9.2v7.2c0,1.4,0.2,2.2,0.4,3h-7.6c0.2-0.8,0.4-1.5,0.4-3V41.5c0-1.4-0.2-2.2-0.4-3h7.6 c-0.2,0.8-0.4,1.5-0.4,3v7H79v-7c0-1.4-0.2-2.2-0.4-3h7.6c-0.2,0.8-0.4,1.5-0.4,3v17.2c0,1.4,0.2,2.2,0.4,3H78.5z M105.3,52.1h-7.8 l3.9-8.8L105.3,52.1z M117.3,61.7c-0.7-0.6-1.3-1.9-1.8-3l-9.2-20.2h-7.6l1,1.5l-8.4,18.7c-0.4,0.8-1.1,2-1.8,3H94 c0-1.1,0.2-2.3,0.5-3l1.5-3.6h10.5l1.6,3.6c0.4,0.9,0.6,1.8,0.6,2.4c0,0.2,0,0.4-0.1,0.6L117.3,61.7L117.3,61.7z M137,46.9 c0,1.1-0.3,1.5-1.3,1.5h-7.8v-7h7.8c0.9,0,1.3,0.5,1.3,1.5V46.9z M144.6,61.7c-1-1-1.4-1.9-1.8-3l-2.8-7.1c2.4-0.3,3.6-1.6,3.6-3.8 v-4.9c0-2.5-1.4-4.3-4.5-4.3h-18.4c0.2,0.8,0.4,1.5,0.4,2.9v17.2c0,1.4-0.2,2.2-0.4,3h7.6c-0.2-0.8-0.4-1.5-0.4-3v-7.2h5.1l4,10.2 H144.6z M164.7,57.5c0,0.9-0.5,1.2-1.2,1.2h-8.1V41.5l8.1,0c0.8,0,1.2,0.3,1.2,1.2V57.5z M171.5,57.1V43c0-2.8-1.4-4.5-4.5-4.5 h-18.8c0.2,0.8,0.4,1.5,0.4,2.9v17.3c0,1.4-0.2,2.2-0.4,2.9H167C170.1,61.7,171.5,59.9,171.5,57.1z M208.6,61.5 c0.2-0.8,0.4-1.5,0.4-3V41.7H209l-7.9,19.8h-4.7l-7.8-19.8h-0.1v16.8c0,1.4,0.2,2.2,0.4,3h-4c0.2-0.8,0.4-1.5,0.4-3V41.3 c0-1.4-0.2-2.2-0.4-3h9.1l6.6,16.8l6.7-16.8h8.6c-0.2,0.8-0.4,1.5-0.4,3v17.2c0,1.4,0.2,2.2,0.4,3L208.6,61.5L208.6,61.5z  M221.5,61.5c0.2-0.8,0.4-1.5,0.4-3V41.3c0-1.4-0.2-2.2-0.4-3h7.6c-0.2,0.8-0.4,1.5-0.4,3v17.2c0,1.4,0.2,2.2,0.4,3H221.5z  M253.6,61.5h-19c0.2-0.8,0.4-1.5,0.4-2.9V41.3c0-1.4-0.2-2.2-0.4-3h7.6c-0.2,0.8-0.4,1.5-0.4,3v17.2h8.9c1.5,0,2.5-0.2,3.4-0.5 L253.6,61.5z M276.5,61.5h-19c0.2-0.8,0.4-1.5,0.4-2.9V41.3c0-1.4-0.2-2.2-0.4-3h7.6c-0.2,0.8-0.4,1.5-0.4,3v17.2h8.9 c1.6,0,2.5-0.2,3.4-0.5L276.5,61.5z M299.4,61.5h-19c0.2-0.8,0.4-1.5,0.4-2.9V41.3c0-1.4-0.2-2.2-0.4-2.9h19l0.6,3.5 c-0.9-0.3-1.8-0.5-3.4-0.5h-8.9v7h8c1.3,0,2.4-0.2,3.2-0.5v4c-0.8-0.3-2-0.5-3.2-0.5h-8v7.3h8.9c1.6,0,2.5-0.2,3.4-0.5L299.4,61.5z"></path></svg>