<svg xmlns="http://www.w3.org/2000/svg" x="0px" y="0px" viewBox="0 0 50 50" style="enable-background:new 0 0 50 50;" xml:space="preserve"><path d="M23.2,0.5c6-0.1,11.7,2,16.1,6.1c0.2,0.2,0.5,0.4,0.7,0.6c0.5,0.4,0.8,0.8,1.2,1.3c0,0.1,0.1,0.1,0.1,0.2 c3.2,3.8,5.4,8.8,5.5,13.8c0,0.1,0,0.2,0,0.3c0.1,5.8-1.5,10.7-4.9,15.5c0.6,0.7,1.2,1.3,1.9,2c0.3,0.3,0.5,0.5,0.8,0.8 c0.5,0.5,1,1,1.5,1.5c0.4,0.3,0.7,0.7,1.1,1c0.1,0.1,0.3,0.3,0.4,0.4c1.7,1.7,1.7,1.7,1.8,2.9c0,0.6-0.3,1.2-0.6,1.7 c-0.7,0.6-1.3,0.9-2.2,0.8c-1.3-0.1-2.2-1.3-3.1-2.2c-0.2-0.2-0.3-0.3-0.5-0.5c-0.4-0.4-0.8-0.8-1.2-1.2c-0.4-0.4-0.8-0.8-1.2-1.2 c-0.8-0.8-1.6-1.6-2.4-2.4c-0.2,0.1-0.2,0.1-0.4,0.2c-0.1,0-0.1,0.1-0.2,0.1c-0.3,0.2-0.5,0.3-0.8,0.5c-0.9,0.6-1.8,1.1-2.8,1.6 c-0.1,0-0.1,0.1-0.2,0.1c-1.9,1-4.1,1.7-6.3,2.1c-0.1,0-0.2,0-0.4,0.1C26.2,47,25,47,23.8,47c-0.1,0-0.2,0-0.3,0 c-2.5,0-4.9-0.4-7.3-1.2c-0.1,0-0.1,0-0.2-0.1c-2.9-1-5.6-2.6-7.8-4.7c-0.2-0.2-0.5-0.4-0.7-0.6C7,40,6.6,39.5,6.2,39.1 C6.1,39,6.1,39,6.1,38.9c-0.9-1.1-1.7-2.2-2.5-3.5c0-0.1-0.1-0.1-0.1-0.2c-3-5.1-3.6-11.5-2.2-17.2c0.8-3.2,2.3-6.2,4.4-8.8 C5.7,9.1,5.7,9.1,5.8,9C6.9,7.7,8,6.6,9.3,5.5c0.1,0,0.1-0.1,0.2-0.1C13.4,2.3,18.2,0.7,23.2,0.5z M11.1,10.8 C11,10.9,11,10.9,10.8,11c-1.4,1.3-2.4,2.9-3.3,4.5c-0.1,0.1-0.1,0.1-0.1,0.2C5.3,20,5.1,25,6.5,29.5c1.4,4.4,4.6,8.3,8.7,10.4 c2,1,4.1,1.8,6.3,2c0.1,0,0.2,0,0.3,0c4.6,0.5,9.4-0.8,13.1-3.7c0.5-0.4,0.9-0.8,1.4-1.2c0.2-0.2,0.3-0.3,0.5-0.5 c3.1-2.9,5.1-7.4,5.2-11.7c0-0.1,0-0.2,0-0.2c0.1-5.2-1.7-9.9-5.3-13.7c-3.1-3.2-7.5-5.2-12-5.4C19.6,5.5,14.9,7.2,11.1,10.8z"></path></svg>