<svg xmlns="http://www.w3.org/2000/svg" x="0px" y="0px" viewBox="0 0 300 100" style="enable-background:new 0 0 300 100;" xml:space="preserve"><path d="M154,35.3c-5.8,0-10.5,1.5-14.3,4.4c-3.8,2.9-5.7,6.5-5.7,10.9c0,3.6,1.9,6.9,5,9.5c3.7,3.2,8.8,4.6,15.1,4.6 c2.6,0,5.4-0.4,7.4-1c3-0.8,7.1-2.6,8.3-5.3l-0.1-4c-0.1-2.8,0.1-2.9,3-2.9v-1H162v1c1.1,0,1.8,0,2.5,0.4c0.6,0.5,0.5,2.6,0.5,3.4 l0,2.4c-0.9,1.7-3,2.7-4.5,3.3c-1.4,0.6-3.9,1.1-6.3,1.2c-4,0-7-1.1-9.6-2.7c-2.6-1.7-5.1-5.2-5.1-9.6c0-4.2,2.7-7.7,5.8-9.9 c2.1-1.4,5.5-2.6,9-2.6c3,0,5.7,0.7,7.7,1.9c2.3,1.3,4.7,3.8,5.6,5.7l0.9-0.4l-1.5-6.2c-1.8-1.1-4.1-1.9-6.2-2.4 C158.6,35.6,156.2,35.3,154,35.3z M15.4,36c-4,0-8.1,0.1-15.3,0l0,0.9c1,0,1.3,0,1.9,0.4c0.6,0.5,0.6,1,0.6,2.7v18.6 c0,1.6,0.1,3.2-0.2,3.6c-0.5,0.6-0.9,0.7-2.1,0.7v1h15c4.1,0,10.9-0.1,13.6-2.3c1.1-0.6,3-2.4,3-5.5c0-3.7-1.6-4.9-3.1-5.7 c-1.3-0.7-3.4-1.3-5.8-1.7c1.9-0.7,2.4-0.9,3.6-1.8c1.3-0.9,2.1-2.7,2.1-4.5c0-4.7-5.1-6.2-9.1-6.4C18.1,36,16.7,36,15.4,36z  M299.9,36l-9.8,0.1v0.8c1.6,0.1,2.1,0.1,2.4,1.3c0.1,0.4,0.1,1.4,0.1,2.8v18c0,3.3,0.3,4-2.3,4v0.9h9.7l0-0.9c-2.6,0-2.5-1-2.5-4 v-18c0-3.2-0.1-4.1,2.5-4.1L299.9,36L299.9,36z M43.9,36.1v1c1,0,1.3,0,1.9,0.4c0.6,0.4,1.4,2.2,2.4,4.1L60,63.9h4 c2.4-4.8,6.4-12.7,9.4-18.7c2.1-3.9,3.5-7.1,4.1-7.9c0.4-0.4,1.3-0.3,2-0.3v-1l-8.3,0v1c0.1,0,2.4-0.3,2.2,1.2 c-0.2,1.2-9.4,18.5-10.6,21.2l-9.2-17.3c-0.7-1.3-1.2-2.2-1.5-3c-0.7-1.8,0.4-2.1,2-2.1v-1H43.9z M254.4,36.1c-0.6,0-1.2,0-1.9,0 c-0.9,0-1.8,0-2.9,0H237V37c1.7,0,2.4,0.5,2.4,2.5v2.1v15.1v4.8c0,1.5-1.1,1.5-2.4,1.4v1h9.9v-1c-1.6,0-2.6-0.1-2.6-2.1v-8.2 c1.1,0.1,2,0,3.7,0c0.6,0,3.7,0,4.7,0c3.6,0,5.2,4.3,7.2,7.3c1.6,2.5,0.9,4.1,11.2,4.1c0-0.2-0.1-0.7-0.1-1c-4.4,0-5.2-2.6-7.1-6 c-1.8-3.1-2.3-5.1-6.8-5.6c6.9-1.3,8.8-4.5,8.8-8c0-3.6-2.7-5.9-7.1-6.9C257.6,36.2,256.2,36.1,254.4,36.1z M95.6,36.1V37 c1.4,0,1.8,0.1,2.2,0.7c0.4,0.5,0.4,1.4,0.4,2.9v13.4v6.9c0,1.8-0.7,2.1-2.4,2.2v0.9h24.8l2.9-5.8l-0.9-0.4c-1,1.5-3.1,3-6.5,3h-7.2 h-5.9V39.3c0-1.3,0.2-1.7,0.6-2c0.5-0.4,0.7-0.3,1.9-0.4v-0.9H95.6z M200.7,36.1l-11.5,21.9c-1,2-1.4,2.6-1.9,3.5 c-0.6,1-0.9,1.6-2.8,1.6v0.8h8.6l0-0.9c-1.5,0-2.2-0.1-2.3-1.5c0-0.4,0.4-1.1,1-2.2l1.6-2.8h16.6l2,3.4c1.3,2.2,1,3-1.4,3.1v1H221 v-1.1c-2.4,0-2.3-0.7-4.5-4.7l-12.1-22.1H200.7z M249.4,38.1c3,0,6.1,0.1,8.1,1.1c1.7,0.8,3,1.7,3,4.5c0,3.9-2.4,4.9-4.2,5.6 c-3.2,0.8-8.4,0.6-12,0.6V38.2C245.8,38.2,247.6,38.1,249.4,38.1z M15.7,38.3c2.4,0,4.8,0.1,6.1,0.9c1.7,1.1,2.1,1.9,2.1,3.5 c0,1-0.8,2.8-1.7,3.5c-2.1,1.7-5.7,1.7-8.4,1.7H7.3v-9.7h6.1C14.1,38.3,14.9,38.3,15.7,38.3z M201.7,40.3l7,13.1H195L201.7,40.3z  M15.5,50.5c4,0,6.9,0.1,8.9,1.6c1.1,0.8,2.1,2.2,2.1,3.8c0,4.6-5.7,4.9-11.4,4.9H7.3V50.5c2.1,0,4.3,0,6.5,0 C14.3,50.5,14.9,50.5,15.5,50.5z"></path></svg>