<svg xmlns="http://www.w3.org/2000/svg" x="0px" y="0px" viewBox="0 0 300 100" style="enable-background:new 0 0 300 100;" xml:space="preserve"><path d="M237.5,51.2c0,0-0.8-1.2-2.7-1.4c0,0-2.1-0.1-6.3,2.7c0,0-3.1,2.1-4.4,3.3l3.5-5.9h-5.2c0,0-4.9,8.3-13.6,15.5 c0,0-8.5,6.9-13.2,7.1c0,0-4.6,0.3-5.1-3.2c0,0-0.3-2.1,1-5.1c0,0,2.9,0.3,6.7-1c0,0,3.6-1.2,6.6-3.2c0,0,3.2-2.2,4.4-4.5 c0,0,1.4-2.6-0.2-4.8c0,0-2.9-2.8-9.1-0.2c0,0-6.4,2.7-11.2,9l-1.2,1.8l-0.1,0.2l-3.4,4l-3.5,3.5c0,0-4.2,4.2-6.3,2.9 c0,0-0.8-0.5-0.8-1.8c0,0,0-1.3,1-2.9l9.9-17.2h-4.4c0,0-2.5,4-5.3,7.9c0,0-5.6,7.4-11.7,11.7c0,0-4.2,3.2-6.5,2.1c0,0-1-0.5-1-1.8 c0,0,0.1-1.4,1.4-3.4l9.7-16.5l5.4-0.1l0.7-0.7h-5.5l5.8-10.3l-4.9,0.1c0,0-3.4,5.8-6,9.3c0,0-4.8,6.3-8.7,8c0,0,0.7-0.9,0.7-2.3 l-0.1-1.1c0,0-0.3-1.4-1.6-2.1l-1.2-0.3l-2.3,0.2c0,0-2.7,0.6-5.3,2.8l2.1-3.5h-4.9c0,0-4.4,7.9-10.2,14.7c0,0-7.6,8.7-11.7,7.7 c0,0-1.2-0.6-1.3-2.1c0,0,0-1.5,1.3-3.6l9.9-16.7l-4.9,0.1l-1.6,2.7l-1,2c0,0,0.2-0.6,0-1.9c0,0-0.4-3.1-3.3-3.7l-2.3-0.2 c0,0-5.9-0.1-12.6,5.8c0,0-4.6,4.1-8.1,10.3c0,0-7,6.5-14.3,7.9c0,0-6.5,1.4-9.3-1.6c0,0-3.1-3.1-3.1-8.6c0,0,0.1-6.5,4.7-15.3 c0,0,4.9-7.2,7.9-10.5c0,0,7.6-8.4,15.6-10.5c0,0,6.5-1.7,10.1,1.2c0,0,3.1,2.5,3.3,7.6l1.8-3c0,0,2.3-3.5,4.2-5.6 c0,0-1.8,0.8-4.1,1.1c0,0-2.8,0.3-4.2-0.5c0,0-3-1.9-8-1.9c-1.5,0-3.2,0.2-5,0.6c0,0-9.3,2.3-19.7,11.9c0,0-4.9,5-8.4,11.4 c0,0-3.6,6.7-4.2,12.3c0,0-0.5,6.3,3,9.5c0,0,4.1,3.8,13,3c0,0,5.6-0.7,11.7-4.5c0,0,2.9-1.9,4.8-3.7c0,0-0.9,3.2,0.4,5.5 c0,0,1.2,2.2,4,2.7c0,0,2.1,0.4,5-0.7c0,0,1.8-0.8,3.1-1.4c0,0,2.5-1.4,5-3.3c0,0-0.5,1.9,0.6,3.5c0,0,1.3,1.8,3.7,2.1 c0,0,6.4,0.5,15.4-10.5l-6.3,10.1l5.7-0.1l5-8.6c0,0,5.2-8.9,6.3-10c0,0,2.7-3.5,6.7-4.4l2.7,0.2c0,0,1.1,0.5,1.1,1.8l-2-0.3 c0,0-1.2,0.1-1.8,1.4c0,0-0.5,1.2-0.3,2.3c0,0,0.3,1,1.2,1.3l0.6,0.2l2-0.3c0,0,3.5-1.3,8.3-7.3l-1.1,2l-4.1,6.9l-4.7,8.3 c0,0-1.4,2.7-0.7,4.4c0,0,0.6,1.6,2.7,2l4.4-0.3c0,0,2.5-0.7,4.6-2.5l2.9-2.4c0,0,3.5-3,6.8-6.5l-0.2,0.3c0,0-2.8,5.1-3.3,6.8 c0,0-1.1,3.6,1.4,5.1l2.9,0.3c0,0,2.4-0.3,4.8-2.1l3.9-3.3c0,0,3.3-3.1,5.1-5.4c0,0-0.9,2.1-1.1,3.5c0,0-0.7,4.8,3.8,6.7l4.2,0.3 c0,0,1.6-0.1,4.2-1c0,0,5.9-1.9,14.1-9.5c0,0,4.2-3.8,7.1-7.2l-10.4,17.4h5.1l3.8-6.4l4.9-8c0,0,2.8-4.4,7.9-7.3 c0,0,2.1-1.2,3.6-1.5c0,0,1.6-0.3,2,0.5c0,0-2.3-0.5-2.9,1.9c0,0-0.5,2.4,1.4,3.1c0,0,1.4,0.5,2.6-0.3c0,0,1-0.7,1.4-2.2 C237.9,53.7,238.2,52.3,237.5,51.2z M192.6,61.6c0,0,2.3-4.5,5.7-8c0,0,3.3-3.4,5.4-3.4c0.1,0,0.1,0,0.2,0c0,0,1.1,0.1,1.6,0.7 c0,0,0.5,0.7,0.3,2.1c0,0-0.3,3.6-4.4,7c0,0-4.6,3.9-9.9,3.8L192.6,61.6z M110.3,69.1l-3.3,2.3c-5.1,2.5-7.3,0.7-7.3,0.7 c-1.8-1.5-1-4.9-1-4.9c0.5-2.3,2.4-5.7,2.4-5.7l3.7-5.4c3.3-3.7,7.2-5.6,7.2-5.6c1.6-0.8,2.9-1,3.9-1c2,0,3,0.9,3,0.9 c2.4,2.2,0.5,6.3,0.5,6.3C115.7,64.5,110.3,69.1,110.3,69.1z M185.2,44.8c0,0,0.9,0,1.5-0.6c0,0,0.6-0.7,0.6-1.6l-0.6-1.6 c0,0-0.7-0.6-1.5-0.6c0,0-1,0-1.6,0.6c0,0-0.7,0.6-0.7,1.6c0,0,0,0.9,0.7,1.6C183.6,44.2,184.2,44.8,185.2,44.8z"></path></svg>