<svg xmlns="http://www.w3.org/2000/svg" x="0px" y="0px" viewBox="0 0 300 100" style="enable-background:new 0 0 300 100;" xml:space="preserve"><path d="M170.8,10.2h-4.5c0,8.1-2.1,11.9-6.3,14.4V10.2h-6.9v17.4c-1.3,0.4-2.7,0.9-4.2,1.4c-0.8,0.3-1.6,0.6-2.4,0.8 V10.2h-6.9v22.6c-7,3.5-10.8,8.5-10.8,19.5h4.5c0-7.6,1.9-11.3,6.3-14.1v14.1h6.9V35c1.2-0.4,2.4-0.9,3.8-1.3c0.9-0.3,1.9-0.6,2.8-1 v19.6h6.9V30C166.6,26.8,170.8,22,170.8,10.2z M144.7,84.7h-8.2v-6h8.2c2.4,0,3.5,0.9,3.5,3.1C148.2,83.4,147.5,84.7,144.7,84.7z  M143.9,69.5c2.6,0,3.4,0.9,3.4,2.5c0,1.6-0.7,2.7-3.3,2.7h-7.6v-5.2L143.9,69.5z M150.2,76.5c1.5-1.1,2.3-2.8,2.3-4.8 c0-2-0.8-6.6-8.3-6.6h-12.4v24H145c5.3,0,8.3-2.7,8.3-7.3C153.3,79.6,152.2,77.8,150.2,76.5z M205.4,65.1V70h7.6v19.2h4.7V70h7.4 v-4.9H205.4z M190.6,85c-4.6,0-8.2-3.5-8.2-8c0-4.5,3.6-8,8.2-8c4.6,0,8.2,3.5,8.2,8C198.7,81.5,195.1,85,190.6,85z M190.6,64.4 c-7.2,0-12.9,5.5-12.9,12.6c0,7.1,5.7,12.6,12.9,12.6s12.9-5.5,12.9-12.6C203.4,70,197.8,64.4,190.6,64.4z M160,65.1v24h16.2v-4.9 h-11.5V65.1H160z M120.8,65.1v12.6c0,3.6-0.4,7.5-6.4,7.5c-6,0-6.4-3.8-6.4-7.5V65.1h-4.7V78c0,5.7,1.6,11.9,11.1,11.9 c9.5,0,11.1-6.2,11.1-11.9V65.1H120.8z M91.8,65.1V74H79.7v-9H75v24.1h4.7V79h12.1v10.2h4.7v-24H91.8z"></path></svg>