<svg xmlns="http://www.w3.org/2000/svg" x="0px" y="0px" viewBox="0 0 100 100" style="enable-background:new 0 0 100 100;" xml:space="preserve"><g>	<path d="M89.7,28.1c-3.6-5.6-8.7-10-15.3-13c-6.6-3.1-14.5-4.7-23.8-4.7c-9.3,0-17.3,1.6-24.1,4.7  c-6.8,3-12.1,7.5-15.9,13.3C6.9,34.1,5,41.2,5,49.4c0,8.2,1.9,15.3,5.6,21.3c3.7,5.9,8.9,10.5,15.8,13.8c6.8,3.3,14.8,4.9,24,4.9  c3.6,0,7-0.3,10.2-0.8c3.3-0.4,6.2-1.1,8.9-1.9c2.8-0.9,5.2-1.9,7.4-3.2l-3.7-7.2c-1.8,1-3.9,1.9-6.2,2.6c-2.3,0.7-4.9,1.3-7.7,1.7  c-2.8,0.4-5.7,0.5-8.9,0.5c-7.6,0-14.2-1.2-19.7-3.7c-5.5-2.5-9.8-6.2-12.8-11c-3-4.8-4.5-10.5-4.5-17.2c0-5.1,0.9-9.5,2.6-13.4  c1.7-3.8,4.2-7.1,7.5-9.7s7.2-4.6,11.7-5.9c4.6-1.3,9.7-2,15.4-2c5.6,0,10.6,0.7,15.1,2c4.5,1.3,8.3,3.2,11.3,5.8  c3.1,2.5,5.5,5.7,7.1,9.5c1.7,3.7,2.5,8,2.5,12.8c0,2.2-0.2,4-0.5,5.5c-0.3,1.5-0.9,2.7-1.7,3.5c-0.8,0.8-2,1.2-3.5,1.2  c-1.6,0-2.8-0.4-3.7-1.2c-0.9-0.8-1.5-1.9-1.8-3.3c-0.3-1.4-0.4-3-0.4-4.8V30.6H64.6v10.6c-0.2-0.8-0.5-1.6-0.8-2.3  c-1.3-3.5-3.4-6.3-6.2-8.4c-2.8-2.2-6.4-3.3-11.1-3.3c-4.6,0-8.7,1-12.2,3c-3.4,2-6,4.8-7.9,8.3c-1.8,3.4-2.7,7.3-2.7,11.6  c0,4.1,0.9,7.9,2.7,11.2c1.8,3.3,4.3,5.9,7.6,7.8c3.3,1.9,7.2,2.8,11.5,2.8c3.6,0,6.7-0.8,9.2-2.3c2.5-1.6,4.6-3.5,6.2-5.9  c1.7-2.4,2.9-4.8,3.6-7.3c0-0.1,0.1-0.3,0.1-0.4c0.1,0.9,0.4,1.8,0.7,2.7c0.7,1.5,1.6,2.8,2.8,4c1.2,1.2,2.8,2.2,4.7,2.9  c2,0.7,4.2,1.1,6.7,1.1c3.6,0,6.6-0.8,8.8-2.4c2.3-1.7,3.9-3.9,4.9-6.6c1.1-2.8,1.6-5.9,1.6-9.5C95,40.5,93.3,33.8,89.7,28.1z   M63.4,54.8c-0.7,1.5-1.8,2.9-3.1,4.1c-1.4,1.2-3.1,2.1-5.1,2.8c-2,0.7-4.2,1.1-6.6,1.1c-4.6,0-8.2-1.2-10.7-3.7  c-2.4-2.5-3.6-5.4-3.6-8.9c0-4.1,1.1-7.5,3.3-10c2.2-2.5,5.8-3.8,11-3.8c2.4,0,4.6,0.3,6.5,1c2,0.6,3.7,1.6,5.1,2.8  c1.5,1.2,2.5,2.6,3.3,4.3c0.8,1.7,1.2,3.5,1.2,5.7C64.6,51.8,64.2,53.3,63.4,54.8z"></path></g></svg>