<svg xmlns="http://www.w3.org/2000/svg" x="0px" y="0px" viewBox="0 0 50 50" style="enable-background:new 0 0 50 50;" xml:space="preserve"><path d="M21.5,46.7c-0.2,0-0.3,0-0.5,0c-6.8,0-13.5,0-20.3,0c-0.2,0-0.4,0-0.6,0c0-0.1,0-0.3,0-0.4 c0-7.4-0.1-14.7,0-22.1C0.3,16.8,3.6,11,9.6,6.9c3.4-2.4,7.3-3.5,11.4-3.6c0.1,0,0.2,0,0.4,0c0,2.4,0,4.8,0,7.3 c-0.7,0-1.4,0-2.1,0.1c-6,0.9-10.8,5.5-11.9,11.6C7.2,23.1,7.2,24,7.1,25c4.9,0,9.6,0,14.3,0C21.5,32.3,21.5,39.5,21.5,46.7z"></path><path d="M28.6,23.6c0.1-0.9,0.2-1.8,0.4-2.6c1.1-5.6,3.9-10.1,8.4-13.5c3.6-2.7,7.6-4.1,12.1-4.2c0.1,0,0.2,0,0.4,0 c0,0,0,0,0.1,0c0,2.4,0,4.7,0,7.2c-4.9,0.1-8.9,2.2-11.7,6.3c-1.7,2.4-2.5,5.2-2.5,8.3c4.7,0,9.5,0,14.2,0c0,7.3,0,14.5,0,21.8 c-0.1,0-0.3,0-0.4,0c-6.8,0-13.7,0-20.5,0c-0.1,0-0.2,0-0.4,0C28.6,39,28.6,31.3,28.6,23.6z"></path></svg>