<svg xmlns="http://www.w3.org/2000/svg" x="0px" y="0px" viewBox="0 0 100 100" style="enable-background:new 0 0 100 100;" xml:space="preserve"><path d="M2.3,12.8l65.6,65.5l5.4,5.4H24.4c-1,0-2.2,0.6-3.3,1.5c-0.9,0.9-1.4,2.2-1.4,3.4V95c0,0.9,0.4,1.8,1.4,2.9 c0.7,0.7,1.8,1.1,3.3,1.1h69.9c1.8,0,2.7-0.3,3.3-0.9h0c0.9-0.9,1.5-2.1,1.5-3.2V24.5c0-2.6-2.1-4.6-4.4-4.6h-6.4 c-2.4,0-4.8,2.4-4.8,4.8v48.6L78,67.8L16,5.5l-3.1-3.2C11.9,1.4,11,1,9.9,1C8.7,1,7.6,1.5,6.8,2.3L3.7,5.5L2.3,6.8 C1.4,7.7,1,8.8,1,9.9C1,10.9,1.4,12,2.3,12.8z"></path></svg>