<svg xmlns="http://www.w3.org/2000/svg" x="0px" y="0px" viewBox="0 0 100 100" style="enable-background:new 0 0 100 100;" xml:space="preserve"><g>	<path d="M24.8,50.2c0.8-4.6,3-8.7,6.2-11.9c3.2-3.2,7.3-5.4,11.9-6.2v-8.9c-7,0.9-13.3,4.1-18.1,8.9c-4.7,4.8-8,11.1-8.9,18.1H24.8  z"></path>	<path d="M42.9,76.2c-4.6-0.8-8.7-3-11.9-6.2c-3.2-3.2-5.4-7.3-6.2-11.9h-8.9c0.9,7,4.1,13.3,8.9,18.1c4.8,4.8,11.1,8,18.1,8.9V76.2  z"></path>	<path d="M68.8,58.1c-0.8,4.6-3,8.7-6.2,11.9c-3.2,3.1-7.3,5.4-11.9,6.2v8.9c7-0.9,13.3-4.1,18.1-8.9c4.7-4.7,8-11,8.8-18.1H68.8z"></path>	<path d="M65.4,41.7c1.1,1.7,2,3.5,2.7,5.5c0.3,1,0.6,2,0.8,3.1h8.9c-0.3-2.8-1-5.4-2-7.8c-1-2.5-2.4-4.9-4-7L65.4,41.7z"></path>	<path d="M50.8,32.1c1.1,0.2,2.1,0.5,3.1,0.8c1.9,0.6,3.8,1.5,5.5,2.7l6.3-6.3c-2.2-1.6-4.5-3-7-4c-2.5-1-5.1-1.7-7.8-2.1V32.1z"></path>	<path d="M48.9,45.5c-0.7-0.1-1.4-0.2-2.1-0.2c-2.5,0-4.7,1-6.3,2.6C39,49.5,38,51.7,38,54.2s1,4.7,2.6,6.3c1.6,1.6,3.8,2.6,6.3,2.6  c2.5,0,4.7-1,6.3-2.6c1.6-1.6,2.6-3.8,2.6-6.3c0-0.7-0.1-1.4-0.3-2.1c0-0.1,0-0.3-0.1-0.4l-5.5,5.5c-0.8,0.8-1.9,1.3-3,1.3  c-1.1,0-2.2-0.4-3-1.3c-0.8-0.8-1.3-1.9-1.3-3c0-1.1,0.4-2.2,1.3-3l5.5-5.5C49.2,45.6,49,45.6,48.9,45.5z"></path>	<path d="M68.2,30L61.3,37l-1,1L52.2,46l-6.8,6.7c-0.3,0.4-0.6,0.9-0.6,1.4s0.2,1,0.6,1.4c0.4,0.4,0.9,0.6,1.4,0.6  c0.5,0,1-0.2,1.4-0.6l6.8-6.7l1.1-1.1l6.9-6.9l0.9-1l7-7l0.9-0.9l6.6-6.6L77,24.8v0l-0.7-0.2L76.2,24l-0.4-1.5L68.2,30z"></path>	<path d="M82.4,23.8l0.7,0.2l4.2,1.1l10.3-10.4l0.9-0.9L95.3,13l-5.1-1.4c-0.4-0.1-0.8-0.5-0.8-0.8L88,5.7l-0.8-3.2l-0.9,0.9  L75.9,13.8l1.2,4.5l1.2,4.5L82.4,23.8z"></path>	<path d="M47.3,34.2L47.3,34.2L47.3,34.2h-0.1h0h0h0h0h0h0h0h0h0h0h0h0h0h0h0h0c-5.4,0.1-10.3,2.3-13.8,5.9  c-3.5,3.5-5.7,8.3-5.9,13.6v0v0v0v0v0v0v0v0v0v0v0v0v0v0v0v0v0v0v0v0v0v0v0v0v0c0.2,5.3,2.4,10.1,5.9,13.6  c3.5,3.5,8.3,5.7,13.6,5.8h0h0v0h0h0h0h0h0h0h0h0h0h0.1h0.1h0h0h0h0h0h0h0h0h0v0h0c5.3-0.1,10.1-2.3,13.6-5.8  c3.6-3.6,5.8-8.4,5.9-13.8v0v0v0v0v0v0v0v0v0v0v0v0v0v-0.1v0v0v0c0-2-0.4-4-1-5.8c-0.5-1.6-1.3-3.1-2.2-4.5l-6.5,6.5  c0.2,0.5,0.4,1.1,0.6,1.7c0.2,0.8,0.3,1.7,0.3,2.6c0,3.1-1.3,5.9-3.3,7.9c-2,2-4.8,3.3-7.9,3.3c-3.1,0-5.9-1.3-8-3.3  c-2-2-3.3-4.8-3.3-7.9c0-3.1,1.2-5.9,3.3-8c2-2,4.9-3.3,8-3.3c0.9,0,1.8,0.1,2.6,0.3c0.6,0.1,1.1,0.3,1.7,0.6l6.5-6.5  c-1.4-0.9-2.9-1.6-4.5-2.1C51.3,34.6,49.4,34.2,47.3,34.2z"></path>	<path d="M45.2,20.7v1.3v9.9c0.5,0,0.9-0.1,1.3-0.1h0h0h0.1h0.1c0.6,0,1.1,0,1.6,0.1v-9.9v-1.3v-8.2c0-0.5-0.2-0.8-0.5-1.1  c-0.3-0.3-0.7-0.5-1.1-0.5c-0.4,0-0.8,0.2-1.1,0.5c-0.3,0.3-0.5,0.7-0.5,1.1V20.7z"></path>	<path d="M80.3,52.6H79h-9.9c0,0.6,0.1,1.1,0.1,1.6v0v0v0v0v0v0c0,0.4,0,0.9-0.1,1.3H79h1.3h8.2c0.4,0,0.8-0.2,1.1-0.5  c0.3-0.3,0.5-0.7,0.5-1.1c0-0.4-0.2-0.8-0.5-1.1c-0.3-0.3-0.7-0.5-1.1-0.5H80.3z"></path>	<path d="M48.4,87.7v-1.3v-9.9c-0.4,0-0.8,0-1.3,0h0h0h0h0h-0.1h0h0h-0.1h0h0c-0.5,0-0.9,0-1.4,0v9.9v1.3v8.2c0,0.4,0.2,0.8,0.5,1.1  c0.3,0.3,0.7,0.5,1.1,0.5c0.4,0,0.8-0.2,1.1-0.5c0.3-0.3,0.5-0.7,0.5-1.1V87.7z"></path>	<path d="M13.3,55.7h1.3h9.9c0-0.4-0.1-0.9-0.1-1.3v0v0v0v0c0,0,0-0.1,0-0.1c0,0,0,0,0-0.1v0v0v0v0c0-0.5,0-0.9,0.1-1.4h-9.9h-1.3  H5.1c-0.5,0-0.8,0.2-1.1,0.5c-0.3,0.3-0.5,0.7-0.5,1.1c0,0.4,0.2,0.8,0.5,1.1c0.3,0.3,0.7,0.5,1.1,0.5H13.3z"></path></g></svg>