<svg xmlns="http://www.w3.org/2000/svg" x="0px" y="0px" viewBox="0 0 100 100" style="enable-background:new 0 0 100 100;" xml:space="preserve"><g>	<path d="M64.8,61.7c12.1-8.8,12.8-28.1,1.4-37.8c-14.4-13.3-38.7-4.1-40.8,15.4c-0.5,4.2,0.1,8.6,1.7,12.5c1.7,3.9,4.3,7.4,7.7,10  c0.9,0.7,1.7,1.6,2.2,2.6c0.5,1,0.7,2.2,0.7,3.3c-1,0.6-1.8,1.4-2.4,2.3c-0.6,1-0.9,2.1-0.9,3.3c0,1.1,0.3,2.3,0.9,3.3  c0.6,1,1.4,1.8,2.4,2.3l0,2.8c0,1.2,0.4,2.3,1.1,3.3c0.7,1,1.7,1.7,2.8,2c-0.1,1.2,0,2.3,0.3,3.4c0.4,1.1,0.9,2.1,1.7,3  c0.8,0.9,1.7,1.6,2.8,2s2.2,0.7,3.4,0.7c1.2,0,2.3-0.2,3.4-0.7s2-1.2,2.8-2c0.8-0.9,1.4-1.9,1.7-3s0.5-2.3,0.3-3.4  c1.1-0.4,2.1-1.1,2.8-2c0.7-1,1.1-2.1,1.1-3.3v-2.9c1-0.5,1.9-1.3,2.5-2.3c0.6-1,0.9-2.1,0.9-3.3c0-1.2-0.3-2.3-0.9-3.3  c-0.6-1-1.5-1.8-2.5-2.3c-0.1-1.2,0.2-2.3,0.7-3.4C63.1,63.3,63.9,62.4,64.8,61.7z M36.9,59.1C21.7,47.6,28.5,23.2,47.4,21  c3-0.3,6,0,8.9,0.9c2.9,0.9,5.5,2.4,7.7,4.4c2.2,2,4,4.4,5.3,7.2c1.2,2.7,1.9,5.7,1.9,8.7c0,3.3-0.7,6.5-2.2,9.4  c-1.4,2.9-3.6,5.5-6.1,7.5c-1.2,0.9-2.2,2.1-2.9,3.4c-0.7,1.4-1.1,2.8-1.2,4.4h-2.9l1.4-14.8l5.2-5.2c0.2-0.2,0.3-0.3,0.4-0.5  c0.1-0.2,0.1-0.4,0.1-0.6c0-0.2,0-0.4-0.1-0.6c-0.1-0.2-0.2-0.4-0.4-0.5c-0.2-0.2-0.3-0.3-0.5-0.4c-0.2-0.1-0.4-0.1-0.6-0.1  c-0.2,0-0.4,0-0.6,0.1c-0.2,0.1-0.4,0.2-0.5,0.4L55.6,49l-3.4-3.4c-0.6-0.6-1.4-0.9-2.2-0.9c-0.8,0-1.6,0.3-2.2,0.9L44.4,49  L40,44.6c-0.3-0.3-0.7-0.5-1.2-0.5c-0.4,0-0.8,0.2-1.2,0.5c-0.3,0.3-0.5,0.7-0.5,1.2c0,0.4,0.2,0.8,0.5,1.2l5.2,5.2l1.4,14.8H41  c-0.1-1.5-0.5-3-1.2-4.4C39.1,61.2,38.1,60,36.9,59.1z M47.6,66.9L46.1,52l3.9-3.9l3.9,3.9l-1.4,14.9H47.6z M49.8,93  c-0.7,0-1.4-0.2-2-0.5c-0.6-0.3-1.2-0.7-1.7-1.3c-0.5-0.5-0.8-1.2-1-1.8c-0.2-0.7-0.3-1.4-0.2-2.1h9.8c0.1,0.7,0,1.4-0.2,2.1  c-0.2,0.7-0.6,1.3-1,1.8c-0.5,0.5-1,1-1.7,1.3C51.2,92.8,50.5,93,49.8,93z M56.4,84H43.3c-0.6,0-1.2-0.2-1.6-0.7  c-0.4-0.4-0.7-1-0.7-1.6v-2.1h17.7v2.1c0,0.6-0.2,1.2-0.7,1.6C57.6,83.8,57,84,56.4,84z M59,76.4H40.7c-0.8,0-1.6-0.3-2.2-0.9  c-0.6-0.6-0.9-1.4-0.9-2.2s0.3-1.6,0.9-2.2c0.6-0.6,1.3-0.9,2.2-0.9c0,0,15.2,0,18.3,0c0.8,0,1.6,0.3,2.2,0.9  c0.6,0.6,0.9,1.4,0.9,2.2c0,0.8-0.3,1.6-0.9,2.2C60.5,76,59.8,76.4,59,76.4z"></path>	<path d="M49.8,13.9c0.4,0,0.9-0.2,1.2-0.5c0.3-0.3,0.5-0.7,0.5-1.2V5.4c0-0.4-0.2-0.9-0.5-1.2c-0.3-0.3-0.7-0.5-1.2-0.5  c-0.4,0-0.9,0.2-1.2,0.5c-0.3,0.3-0.5,0.7-0.5,1.2v6.9c0,0.4,0.2,0.9,0.5,1.2C49,13.8,49.4,13.9,49.8,13.9z"></path>	<path d="M71.1,22.6c0.2,0,0.4,0,0.6-0.1c0.2-0.1,0.4-0.2,0.5-0.4l4.9-4.9c0.2-0.2,0.3-0.3,0.4-0.5c0.1-0.2,0.1-0.4,0.1-0.6  c0-0.2,0-0.4-0.1-0.6c-0.1-0.2-0.2-0.4-0.4-0.5c-0.2-0.2-0.3-0.3-0.5-0.4c-0.2-0.1-0.4-0.1-0.6-0.1c-0.2,0-0.4,0-0.6,0.1  c-0.2,0.1-0.4,0.2-0.5,0.4l-4.9,4.9c-0.2,0.2-0.4,0.5-0.4,0.8c-0.1,0.3,0,0.6,0.1,0.9c0.1,0.3,0.3,0.6,0.6,0.7  C70.4,22.5,70.8,22.6,71.1,22.6z"></path>	<path d="M86.9,40.4H80c-0.4,0-0.8,0.2-1.1,0.5c-0.3,0.3-0.5,0.7-0.5,1.2c0,0.4,0.2,0.8,0.5,1.2c0.3,0.3,0.7,0.5,1.1,0.5h6.9  c0.4,0,0.8-0.2,1.1-0.5c0.3-0.3,0.5-0.7,0.5-1.2c0-0.4-0.2-0.8-0.5-1.2C87.7,40.6,87.3,40.4,86.9,40.4z"></path>	<path d="M72.5,62.2c-0.3-0.3-0.7-0.5-1.2-0.5c-0.4,0-0.8,0.2-1.2,0.5c-0.3,0.3-0.5,0.7-0.5,1.2c0,0.4,0.2,0.8,0.5,1.2l4.9,4.9  c0.2,0.2,0.3,0.3,0.5,0.4c0.2,0.1,0.4,0.1,0.6,0.1c0.2,0,0.4,0,0.6-0.1c0.2-0.1,0.4-0.2,0.5-0.4c0.2-0.2,0.3-0.3,0.4-0.5  c0.1-0.2,0.1-0.4,0.1-0.6c0-0.2,0-0.4-0.1-0.6c-0.1-0.2-0.2-0.4-0.4-0.5L72.5,62.2z"></path>	<path d="M27.7,62.4l-4.9,4.9c-0.2,0.2-0.3,0.3-0.4,0.5c-0.1,0.2-0.1,0.4-0.1,0.6c0,0.2,0,0.4,0.1,0.6c0.1,0.2,0.2,0.4,0.4,0.5  c0.2,0.2,0.3,0.3,0.5,0.4c0.2,0.1,0.4,0.1,0.6,0.1c0.2,0,0.4,0,0.6-0.1c0.2-0.1,0.4-0.2,0.5-0.4l4.9-4.9c0.3-0.3,0.5-0.7,0.5-1.2  c0-0.4-0.2-0.8-0.5-1.2c-0.3-0.3-0.7-0.5-1.2-0.5C28.5,62,28.1,62.1,27.7,62.4z"></path>	<path d="M20,40.8h-6.9c-0.4,0-0.8,0.2-1.1,0.5c-0.3,0.3-0.5,0.7-0.5,1.2c0,0.4,0.2,0.8,0.5,1.2c0.3,0.3,0.7,0.5,1.1,0.5H20  c0.4,0,0.8-0.2,1.1-0.5c0.3-0.3,0.5-0.7,0.5-1.2c0-0.4-0.2-0.8-0.5-1.2C20.9,41,20.4,40.8,20,40.8z"></path>	<path d="M27.5,22.3c0.3,0.3,0.7,0.5,1.2,0.5c0.4,0,0.8-0.2,1.2-0.5c0.3-0.3,0.5-0.7,0.5-1.2c0-0.4-0.2-0.8-0.5-1.2L25,15.1  c-0.3-0.3-0.7-0.5-1.2-0.5c-0.4,0-0.8,0.2-1.2,0.5c-0.3,0.3-0.5,0.7-0.5,1.2c0,0.4,0.2,0.8,0.5,1.2L27.5,22.3z"></path></g></svg>