<svg xmlns="http://www.w3.org/2000/svg" x="0px" y="0px" viewBox="0 0 50 50" style="enable-background:new 0 0 50 50;" xml:space="preserve"><path class="st0" d="M3.7,10.1l-1,23.7L24.3,50l20.5-16.2L45,10.1L24.3,0L3.7,10.1z M28.2,22.9c0.2,0.2,0.5,0.4,0.8,0.4 c0.3,0,0.6,0,0.9-0.2l12.8-9.8l-0.1,18.4l-16.8-7.5L25.5,3.2l16.1,7.9L28.4,21.2c-0.1,0.1-0.2,0.2-0.3,0.3C28,21.7,28,21.8,28,22 c0,0.2,0,0.3,0,0.5C28,22.6,28.1,22.7,28.2,22.9z M24.3,29.3c-0.3,0-0.6,0.1-0.8,0.3c-0.2,0.2-0.3,0.5-0.3,0.8v15.7L6.4,33.6l18-7.4 l16.7,7.5L25.5,46.1V30.4c0-0.3-0.1-0.6-0.3-0.8C24.9,29.4,24.6,29.3,24.3,29.3z M5.9,13.2l12.9,9.9c0.2,0.2,0.6,0.3,0.9,0.2 c0.3,0,0.6-0.2,0.8-0.4c0.2-0.2,0.3-0.6,0.2-0.9c0-0.3-0.2-0.6-0.4-0.8L7,11.1l16.1-7.9l0.2,20.9L5.1,31.6L5.9,13.2z"></path></svg>