<svg xmlns="http://www.w3.org/2000/svg" xmlns:xlink="http://www.w3.org/1999/xlink" x="0px" y="0px"
	 viewBox="0 0 170 30.9" style="enable-background:new 0 0 170 30.9;" xml:space="preserve">
<style type="text/css"> .logo_light {fill:#FFFFFF;} </style>
<path class="logo_light" d="M7.4,29.6H1l9.8-28.4h7.7l9.8,28.4h-6.4L14.8,7.7h-0.2L7.4,29.6z M7,18.5h15.2v4.7H7V18.5z M37.7,30
	c-1.4,0-2.6-0.2-3.6-0.7c-1.1-0.5-1.9-1.2-2.5-2.1c-0.6-0.9-0.9-2.1-0.9-3.5c0-1.2,0.2-2.2,0.7-3c0.4-0.8,1-1.4,1.8-1.9
	s1.6-0.9,2.5-1.1c1-0.2,2-0.4,3-0.5c1.2-0.1,2.2-0.2,3-0.4c0.8-0.1,1.3-0.3,1.6-0.5c0.3-0.2,0.5-0.6,0.5-1v-0.1c0-0.9-0.3-1.6-0.8-2
	c-0.5-0.5-1.3-0.7-2.3-0.7c-1.1,0-1.9,0.2-2.5,0.7c-0.6,0.5-1,1-1.2,1.7l-5.5-0.4c0.3-1.3,0.8-2.4,1.6-3.4c0.8-1,1.9-1.7,3.1-2.2
	c1.3-0.5,2.8-0.8,4.5-0.8c1.2,0,2.3,0.1,3.4,0.4c1.1,0.3,2.1,0.7,2.9,1.3c0.8,0.6,1.5,1.3,2,2.2c0.5,0.9,0.7,2,0.7,3.3v14.3H44v-2.9
	h-0.2c-0.3,0.7-0.8,1.3-1.4,1.8c-0.6,0.5-1.3,0.9-2.1,1.2C39.6,29.9,38.7,30,37.7,30z M39.3,25.9c0.9,0,1.6-0.2,2.3-0.5
	c0.7-0.4,1.2-0.8,1.6-1.4c0.4-0.6,0.6-1.3,0.6-2v-2.3c-0.2,0.1-0.4,0.2-0.8,0.3c-0.3,0.1-0.7,0.2-1.1,0.3c-0.4,0.1-0.8,0.1-1.2,0.2
	c-0.4,0.1-0.8,0.1-1.1,0.2c-0.7,0.1-1.3,0.3-1.8,0.5c-0.5,0.2-0.9,0.5-1.2,0.9c-0.3,0.4-0.4,0.8-0.4,1.4c0,0.8,0.3,1.4,0.9,1.8
	C37.7,25.7,38.4,25.9,39.3,25.9z M59.5,23.5l0-7.1h0.9l6.8-8.1H74L64.8,19h-1.4L59.5,23.5z M54.2,29.6V1.2h5.9v28.4H54.2z
	 M67.5,29.6l-6.3-9.3l3.9-4.2l9.2,13.4H67.5z M90.5,20.5V8.3h5.9v21.3h-5.7v-3.9h-0.2c-0.5,1.2-1.3,2.2-2.4,3
	c-1.1,0.8-2.5,1.1-4.1,1.1c-1.4,0-2.7-0.3-3.8-1c-1.1-0.6-1.9-1.6-2.5-2.8c-0.6-1.2-0.9-2.6-0.9-4.3V8.3h5.9v12.5c0,1.3,0.3,2.2,1,3
	c0.7,0.7,1.6,1.1,2.7,1.1c0.7,0,1.4-0.2,2-0.5c0.6-0.3,1.1-0.8,1.5-1.5C90.3,22.3,90.5,21.5,90.5,20.5z M101.1,29.6V8.3h5.6v3.8h0.2
	c0.4-1.2,1.2-2.2,2.2-2.9c1-0.7,2.3-1.1,3.7-1.1c1.5,0,2.7,0.4,3.7,1.1c1,0.7,1.7,1.7,2,2.9h0.2c0.4-1.2,1.2-2.2,2.4-2.9
	c1.1-0.7,2.5-1.1,4.1-1.1c2,0,3.6,0.6,4.8,1.9c1.2,1.3,1.9,3,1.9,5.3v14.3h-5.9V16.5c0-1.2-0.3-2.1-0.9-2.7
	c-0.6-0.6-1.4-0.9-2.4-0.9c-1.1,0-1.9,0.3-2.5,1c-0.6,0.7-0.9,1.6-0.9,2.7v13h-5.7V16.3c0-1-0.3-1.9-0.9-2.5
	c-0.6-0.6-1.4-0.9-2.3-0.9c-0.7,0-1.2,0.2-1.8,0.5c-0.5,0.3-0.9,0.8-1.2,1.4c-0.3,0.6-0.5,1.3-0.5,2v12.8H101.1z"/>
<path class="logo_light" d="M156,7.5L169,30h-26L156,7.5z"/>
</svg>
