<svg xmlns="http://www.w3.org/2000/svg" x="0px" y="0px"
	 viewBox="0 0 175 24" style="enable-background:new 0 0 175 24;" xml:space="preserve">
<style type="text/css">
	.MrBlack-logo-class-1{fill:#DD4242;}
	.MrBlack-logo-class-2{fill:#FFFFFF;}
</style>
<g>
	<path class="MrBlack-logo-class-1" d="M16,21h-1.7L26,1h3.8v22H26V6.5l0.9,0.2L17.3,23h-4.2L3.5,6.8l0.9-0.3V23H0.5V1h3.9L16,21z"/>
	<path class="MrBlack-logo-class-1" d="M34.6,6.1h3.8V23h-3.8V6.1z M44.5,9.3c-1.2,0-2.3,0.3-3.2,0.8c-0.9,0.5-1.6,1.2-2.1,1.9
		c-0.5,0.7-0.9,1.5-1.1,2.2l0-1.9c0-0.2,0.1-0.6,0.2-1.1c0.1-0.5,0.3-1.1,0.6-1.7c0.3-0.6,0.7-1.2,1.2-1.8c0.5-0.6,1.1-1.1,1.8-1.4
		c0.7-0.4,1.6-0.5,2.6-0.5V9.3z"/>
	<path class="MrBlack-logo-class-1" d="M50,19.3V23h-4.5v-3.7H50z"/>
	<path class="MrBlack-logo-class-2" d="M54.7,23V1H66c2.7,0,4.8,0.5,6.2,1.5c1.5,1,2.2,2.4,2.2,4.4c0,1.2-0.3,2.2-0.9,2.9c-0.5,0.7-1.3,1.2-2.3,1.6
		c-1,0.3-2.2,0.6-3.6,0.6l0.1-0.2c1,0,1.9,0.1,2.8,0.3c0.9,0.1,1.7,0.4,2.4,0.7c0.7,0.4,1.2,0.9,1.6,1.5c0.4,0.6,0.6,1.5,0.6,2.5
		c0,1.4-0.3,2.5-1,3.4c-0.7,0.9-1.6,1.6-2.8,2c-1.2,0.5-2.6,0.7-4.2,0.7H54.7z M58.6,19.7h7.9c1.5,0,2.6-0.2,3.4-0.7
		c0.8-0.5,1.2-1.3,1.2-2.4c0-0.9-0.2-1.5-0.7-1.9c-0.5-0.4-1.1-0.7-1.9-0.8c-0.8-0.1-1.6-0.2-2.5-0.2h-7.4V19.7z M58.6,10.5h7.1
		c1.5,0,2.6-0.2,3.4-0.7c0.8-0.5,1.2-1.3,1.2-2.4c0-1.1-0.4-1.9-1.2-2.3c-0.8-0.5-1.8-0.7-3.1-0.7h-7.4V10.5z"/>
	<path class="MrBlack-logo-class-2" d="M83.1,1v18.7h13.7V23H79.2V1H83.1z"/>
	<path class="MrBlack-logo-class-2" d="M104.1,17.9v-3.3h13.1v3.3H104.1z M99,23l9.6-22h4.2l9.7,22h-4.2l-8.4-19.9h1.7L103.2,23H99z"/>
	<path class="MrBlack-logo-class-2" d="M148.1,15.3c-0.2,1.7-0.8,3.2-1.8,4.4c-1,1.2-2.3,2.1-3.9,2.8c-1.6,0.6-3.5,1-5.6,1c-1.9,0-3.6-0.2-5.1-0.7
		c-1.5-0.5-2.9-1.2-4-2.2c-1.1-1-2-2.2-2.7-3.6c-0.6-1.4-0.9-3.1-0.9-4.9c0-1.9,0.3-3.5,0.9-4.9c0.6-1.4,1.5-2.6,2.7-3.6
		c1.2-1,2.5-1.7,4-2.2c1.6-0.5,3.3-0.7,5.1-0.7c2.2,0,4.1,0.3,5.7,1c1.6,0.7,2.9,1.6,3.9,2.8c1,1.2,1.6,2.7,1.8,4.4h-3.7
		c-0.3-1-0.8-1.9-1.5-2.6c-0.7-0.7-1.5-1.3-2.6-1.7c-1-0.4-2.2-0.6-3.5-0.6c-1.7,0-3.2,0.3-4.5,1c-1.3,0.6-2.4,1.5-3.2,2.7
		c-0.7,1.2-1.1,2.6-1.1,4.4c0,1.7,0.4,3.2,1.1,4.4c0.8,1.2,1.8,2.1,3.2,2.7c1.3,0.6,2.8,0.9,4.5,0.9c1.3,0,2.5-0.2,3.5-0.5
		c1-0.4,1.9-0.9,2.6-1.6c0.7-0.7,1.2-1.6,1.5-2.6H148.1z"/>
	<path class="MrBlack-logo-class-2" d="M160.4,12.3l0-1.9L174.5,23H169l-12.6-11.6L167.6,1h5.4L160.4,12.3z M152.6,1h3.9v22h-3.9V1z"/>
</g>
</svg>
