<svg xmlns="http://www.w3.org/2000/svg" x="0px" y="0px" viewBox="0 0 100 100" style="enable-background:new 0 0 100 100;" xml:space="preserve"><g>	<g>		<path d="M4,95c130.3,0-24,0,92.1,0c0.8,0,1.5-0.7,1.5-1.5S96.9,92,96,92H61.5v-7.3h0.3c0.8,0,1.5-0.7,1.5-1.5s-0.7-1.5-1.5-1.5   h-0.3v-9.4h0.3c0.8,0,1.5-0.7,1.5-1.5s-0.7-1.5-1.5-1.5h-0.3V60h2.1c0.8,0,1.5-0.7,1.5-1.5V34.4c0-0.8-0.7-1.5-1.5-1.5h-2.1v-6.2   c0-0.2-0.1-0.6-0.3-0.9l-4.2-6v-5.7c0-0.4-0.1-0.7-0.3-1l-5.5-7.4C50.9,5.2,50.5,5,50,5c-0.5,0-0.9,0.2-1.2,0.6L43.3,13   c-0.2,0.3-0.3,0.7-0.3,1v5.7c-4.5,6.4-4.4,6.2-4.5,6.8c0,0,0,0,0,0.1v6.2h-2.1c-0.8,0-1.5,0.7-1.5,1.5v24.2c0,0.8,0.7,1.5,1.5,1.5   h2.1v9.3h-0.3c-0.8,0-1.5,0.7-1.5,1.5s0.7,1.5,1.5,1.5h0.3v9.4h-0.3c-0.8,0-1.5,0.7-1.5,1.5s0.7,1.5,1.5,1.5h0.3V92H4   c-0.8,0-1.5,0.7-1.5,1.5S3.1,95,4,95z M46,15.4h8v3.3h-8C46,18.7,46,15.4,46,15.4z M50,9l2.5,3.4h-5.1L50,9z M45.3,21.7h9.4   l2.4,3.4H42.9L45.3,21.7z M41.5,28.2h16.9v4.7H41.5V28.2z M37.9,35.9c4.6,0,19.5,0,24.1,0V57c-7.2,0-17,0-24.1,0V35.9z M41.5,60   h16.9v9.3h-2.1v-2.8c0-0.8-0.7-1.5-1.5-1.5s-1.5,0.7-1.5,1.5v2.8h-1.9v-2.8c0-0.8-0.7-1.5-1.5-1.5s-1.5,0.7-1.5,1.5v2.8h-1.9v-2.8   c0-0.8-0.7-1.5-1.5-1.5c-0.8,0-1.5,0.7-1.5,1.5v2.8h-2.1L41.5,60L41.5,60z M41.5,72.3h16.9v9.4h-2.1V79c0-0.8-0.7-1.5-1.5-1.5   s-1.5,0.7-1.5,1.5v2.7h-1.9V79c0-0.8-0.7-1.5-1.5-1.5s-1.5,0.7-1.5,1.5v2.7h-1.9V79c0-0.8-0.7-1.5-1.5-1.5c-0.8,0-1.5,0.7-1.5,1.5   v2.7h-2.1L41.5,72.3L41.5,72.3z M41.5,84.7c0.2,0,17.1,0,16.9,0V92H41.5V84.7z"></path>	</g>	<g>		<path d="M50,55.9c5.2,0,9.5-4.3,9.5-9.5c0-5.2-4.3-9.5-9.5-9.5c-5.2,0-9.5,4.3-9.5,9.5C40.5,51.7,44.8,55.9,50,55.9z M50,40   c3.6,0,6.5,2.9,6.5,6.5c0,3.6-2.9,6.5-6.5,6.5c-3.6,0-6.5-2.9-6.5-6.5C43.5,42.9,46.4,40,50,40z"></path>	</g>	<g>		<path d="M47.9,50.2c0.3,0,0.6-0.1,0.9-0.3l2.1-1.6c0.4-0.3,0.6-0.7,0.6-1.2v-4.5c0-0.8-0.7-1.5-1.5-1.5s-1.5,0.7-1.5,1.5v3.7   L47,47.5c-0.7,0.5-0.8,1.4-0.3,2.1C47,50,47.4,50.2,47.9,50.2z"></path>	</g></g></svg>