<svg xmlns="http://www.w3.org/2000/svg" x="0px" y="0px" viewBox="0 0 100 100" style="enable-background:new 0 0 100 100;" xml:space="preserve"><g>	<path d="M88,22.5c-0.4,0-0.7,0.4-0.7,1.1c0,0.5,0.2,1.1,0.7,1.1c0.3,0,0.6-0.5,0.6-1.1C88.7,22.9,88.3,22.5,88,22.5z M88,22.5  c-0.4,0-0.7,0.4-0.7,1.1c0,0.5,0.2,1.1,0.7,1.1c0.3,0,0.6-0.5,0.6-1.1C88.7,22.9,88.3,22.5,88,22.5z M88,22.5  c-0.4,0-0.7,0.4-0.7,1.1c0,0.5,0.2,1.1,0.7,1.1c0.3,0,0.6-0.5,0.6-1.1C88.7,22.9,88.3,22.5,88,22.5z"></path>	<path d="M94.2,23.9L94.2,23.9c-0.5-0.3-1.5-1.4-1.6-1.8l-0.2-0.3c-0.3-0.7-0.8-1.7-2.1-2.4c-0.8-0.4-4.1-1.7-5.5-2.2  c-0.9-4.3-5.4-7-6-7.3c-0.3-0.3-0.9-0.4-1.2-0.2c-0.5,0.2-0.9,0.7-0.9,1C76,14.8,77,17.5,78,19.1c-1.1,1-2.2,2.4-3.1,3.7l-0.5,0.7  c-0.6,0.9-1.2,1.7-1.6,2c-0.8,0.6-2.3,0.9-3.2,1c-5.3-5.3-19.2-9.3-32.1-3.2c-9.1,4.2-12,13-14.5,20.8c-1,3.3-2,6.2-3.2,8.5  c-4.1,7.7-10.4,9.7-13.5,10.6l-0.5,0.2c-1.1,0.2-2.4,0.9-2.4,2.2c0,1.2,1.2,2.1,2.3,2.4l1.6,0c14.8,0,23.5-14,25.6-17.9  c0.2,0.1,0.4,0.3,0.6,0.4c2.4,1.5,4.7,3,3.1,9.3c-0.7,3.1-3.3,4.6-4.8,5.4c-0.5,0.3-1,0.5-1.2,0.8l-0.1,0.1  c-0.2,0.2-0.6,0.5-0.7,1.2c-0.3,1.7,1.5,5.3,5.7,11.4c0.1,0.2,0.2,0.4,0.3,0.5l0.1,0.2c0.3,0.3,0.3,0.4-0.2,1.3l0,0.1  c-0.3,0.6-0.7,1.2-0.8,1.8c-0.5,1.7,0.9,3.3,1.9,4.1c0.7,2,2.7,3.4,3.5,3.7c0.2,0.2,0.5,0.2,0.6,0.2c0.4,0,0.8-0.2,1.1-0.5  c0.4-0.4,0.4-1.2,0.1-1.7c0-0.2,0-0.7,0.2-1.4c0.2-0.8,0.4-1.7,0.5-2.7c0.3-2.1-0.6-4.4-1.2-6L41.6,78c-0.1-0.2-0.5-0.8-0.5-1  L41,76.5c-0.1-0.3-0.2-0.6-0.4-1.1c-0.4-0.8-1.5-3.3-1.2-6c0.3-2,3.1-5.2,5.8-8.2c1.9-2,3.4-3.8,4.5-5.3c1.5-2,2.4-4.3,2.5-6.9  c1.2,0.2,3.1,0.5,5.3,0.5c1.9,0,4.7-0.2,7.3-1.2c0.1,1.3,0.2,3.6,0.1,4.3c-0.9,0.6-2.4,1.1-3.1,1c-0.6,0-1,0.2-1.3,0.7  c-0.1,0.2-0.1,0.3-0.1,0.5L59.3,55c-0.4,0.1-0.9,0.4-1.1,1.1l0,0.2c0,0.6,0.3,1.1,0.8,1.4l0.1,0.1h0.2c0.1,0,0.2,0.1,0.3,0.1  c0.8,0.3,2.5,0.9,4.3,0.9c1.5,0,2.7-0.4,3.9-1.2c2.1-1.7,3.8-6.9,5.5-13.1l0.1-0.3c0-0.2,0.1-0.5,0.2-0.7c1.9-1.2,7.3-5,10.2-11  c0.5,0.1,1.1,0.2,1.7,0.2c1.8,0,3.6-0.7,4.3-1c0.6-0.3,1.1-0.3,1.5-0.3c1.4,0.5,2.5,0.5,3.2,0.1c1.4-0.7,1.9-2.3,2-2.9  c0.1-0.1,0.1-0.2,0.1-0.3C96.9,26.8,95.7,24.6,94.2,23.9z M81.3,27.3c-0.8,0.3-1.1,1-0.9,1.8c0.2,0.5,0.4,1.1,0.9,1.7  c-2.9,6.5-9.6,10.4-9.6,10.4c-0.3,0.2-0.5,0.3-0.7,0.7c-0.1,0.3-0.2,0.7-0.5,1.8c-1,3.7-1.9,6.5-2.7,8.4c0.1-1.2,0-2.8-0.3-5.1  c-0.1-1.1-0.1-2.1-0.1-2.8c0-1.6,0.8-2.3,0.8-2.3c0.3-0.3,0.5-0.6,0.6-1c0.1-0.4,0-0.7-0.3-1c-0.4-0.6-1.2-0.7-1.9-0.4l-0.3,0.1  v0.1c-0.4,0.5-1.7,1.9-1.7,4.4c0,0.3,0,0.6,0,1c-4.6,2.2-10.5,1.2-12.4,0.9c-0.1-1-0.3-1.7-0.4-2c0-0.1,0-0.2-0.1-0.2l0-0.2  c-0.2-0.4-0.4-0.7-0.8-0.8c-0.3-0.1-0.7-0.1-1,0c-0.7,0.2-1.1,1-0.9,1.7c0,0,0,0.1,0,0.1c0.5,1.6,1.2,5.8-1.5,9.5  c-1.1,1.5-2.6,3.2-4.3,5.1c-3.2,3.5-6.2,6.8-6.5,9.7c-0.4,2.9,0.5,5.5,1.1,7l0.2,0.4c0.1,0.2,0.2,0.5,0.3,0.7  c0,0.1,0.1,0.3,0.1,0.4c0,0.1,0.1,0.3,0.2,0.5c-0.1-0.1-0.2-0.3-0.3-0.4c-2.6-3.6-5.3-8.2-5.5-9.6c0,0,0.1-0.1,0.2-0.1  c0.1-0.1,0.2-0.2,0.3-0.2c1.9-1.1,5.2-3,6.2-7.2c2.1-8.2-1.8-10.7-4.4-12.3c-1.5-0.9-2.5-1.6-2.7-2.9c-0.2-0.8-0.9-1.3-1.7-1.2  c-0.7,0.2-1.2,0.8-1.1,1.5c0.2,1.2,0.8,2,1.3,2.7c-2.3,4.1-9.5,15.4-21.3,16.7c3.6-1.3,9-4.1,12.8-11.2c1.1-2.3,2-4.9,3-7.6  l0.5-1.5c2.4-7.5,4.9-15.3,12.9-19C51.3,20,64.2,24.6,68,28.9c0.3,0.3,0.7,0.5,1.1,0.5c0.3,0,3.5,0,5.4-1.6c0.7-0.6,1.5-1.6,2.5-3  l0.2-0.2c0.8-1.2,1.7-2.5,2.7-3.2c0.4,0.3,0.7,0.5,0.8,0.6c0.7,0.3,1.5,0.1,2-0.6c0.3-0.7,0.1-1.5-0.5-1.8c0,0-0.1-0.1-0.1-0.1  c-0.2-0.1-0.5-0.3-0.9-0.8L81,18.5c-1.1-1.4-1.7-3-1.8-5c1.2,1.1,2.7,2.7,2.8,4.6c0,0.5,0.4,1.1,0.9,1.2c2.6,1,5.5,2.1,6,2.5  c0.4,0.2,0.6,0.5,0.8,1l0.2,0.4c0.3,0.8,1.6,2.6,2.8,3.2c0.5,0.2,0.8,1,0.8,1.2l0.3,0.3l-0.5-0.1c0,0,0,0,0,0l-0.1,0.3  c-0.2,0.6-0.4,0.8-0.4,0.8c-0.3,0.1-1-0.1-1.2-0.2l-0.3,0c-0.6-0.2-2,0-3.1,0.5c-0.7,0.3-2.9,1.2-4.3,0.7c-0.5-0.3-0.9-0.7-1.1-1.4  c-0.1-0.4-0.3-0.7-0.6-0.9C82.2,27.3,81.8,27.2,81.3,27.3z M37.9,82.7c0.1-0.1,0.2-0.3,0.2-0.4l0.1-0.2c0.4-0.7,0.9-1.6,0.8-2.8  c0.5,1.2,1.5,3.2,1.3,4.7c-0.1,0.9-0.3,1.6-0.5,2.2l0,0c-0.1-0.2-0.2-0.4-0.2-0.6l-0.1-0.2c-0.1-0.2-0.3-0.5-0.6-0.7  c-0.8-0.6-1.2-1.4-1.2-1.5C37.7,83,37.8,82.8,37.9,82.7z M66.2,55.2c-0.1,0.1-0.1,0.1-0.2,0.2c-0.3,0.3-0.8,0.4-1.2,0.5  C65.3,55.7,65.8,55.4,66.2,55.2z"></path></g></svg>