<svg xmlns="http://www.w3.org/2000/svg" x="0px" y="0px" viewBox="0 0 100 100" style="enable-background:new 0 0 100 100;" xml:space="preserve"><path d="M16.1,36.4L16.1,36.4c0.4,1,1.3,1.8,2.4,2.1l5,20.1l4.3,10.1c-1.6,9.7,1.3,12.2,2.3,12.7l6.3,6.3v8.6c0,0.6,0.5,1.1,1.1,1.1 h43c0.4,0,0.9-0.3,1-0.7c2.1,1.3,4.9,0.7,6.2-1.4c0.5-0.7,0.7-1.6,0.7-2.4v-2.3c0-1.7-1-3.3-2.5-4l2.4-5.7c0.2-0.6,0-1.2-0.6-1.5 c-0.1-0.1-0.3-0.1-0.5-0.1h-2.8c-2.9-2.8-6.3-5.2-10-6.9l-0.9-17.8c0.5-1.1,0.8-2.2,1-3.4l12.8-6.2c0.6-0.3,0.8-0.9,0.5-1.5 c-0.2-0.4-0.5-0.6-0.9-0.6l-14.1-1.5l0-0.1l5.8-13c0.3-0.6,0-1.2-0.6-1.5c-0.4-0.2-0.8-0.1-1.1,0.1l-11.7,7.9l-0.1,0l-3.9-13.6 c-0.2-0.6-0.9-0.9-1.5-0.6c-0.3,0.1-0.5,0.4-0.6,0.6l-3.9,13.6l-0.1,0l-11.7-7.9c-0.5-0.4-1.2-0.2-1.6,0.3c-0.2,0.3-0.3,0.7-0.1,1.1 l5.8,13l0,0.1L33.3,43c-0.6,0.1-1.1,0.6-1,1.2c0,0.4,0.3,0.7,0.6,0.9l12.8,6.2c0.2,1.2,0.5,2.3,1,3.4l-0.4,7.6 c-3.2-2.8-6.6-5.3-10.2-7.5l-2.1-4.2L24.2,27l0.8-6.4h1.3c0.6,0,1.1-0.5,1.1-1.1v-4.5c0-0.6-0.5-1.1-1.1-1.1H25 c-0.4-1.9-1.2-3.6-2.3-5.2c-1.2-1.4-1.9-3.2-2.1-5c0-0.6-0.5-1.1-1.1-1.1c-3.4,0-5.3,6.8-5.6,11.3h-1.2c-0.6,0-1.1,0.5-1.1,1.1v4.5 c0,0.6,0.5,1.1,1.1,1.1h1.3l0.6,4.8c-1.8,0.6-3,2.3-3,4.2v2.3C11.5,34.4,13.6,36.4,16.1,36.4z M82.9,44.9l-8,3.9c0,0,0-0.1,0-0.1 c0-0.7-0.1-1.4-0.2-2c0-0.1,0-0.3-0.1-0.4c-0.1-0.7-0.3-1.3-0.5-2c0-0.1,0-0.2-0.1-0.2L82.9,44.9z M46.2,44.2 c-0.2,0.6-0.4,1.3-0.5,2c0,0.1,0,0.3-0.1,0.4c-0.1,0.7-0.2,1.4-0.2,2c0,0,0,0.1,0,0.1l-8-3.9l8.8-0.9C46.3,44,46.3,44.1,46.2,44.2 L46.2,44.2z M20.6,35.8c-0.1,0.1-0.1,0.2-0.2,0.2c-0.1,0-0.1,0.1-0.2,0.1c-0.1,0.1-0.2,0.1-0.3,0.2c-0.1,0-0.1,0-0.2,0 c-0.1,0-0.2,0.1-0.3,0.1c-0.5,0-0.9-0.2-1.1-0.6c0,0,0,0,0.1,0c0.6-0.4,1.1-0.9,1.5-1.5c0-0.1,0.1-0.2,0.1-0.2 c0.1-0.2,0.2-0.5,0.3-0.7c0-0.1,0.1-0.2,0.1-0.3c0.1-0.4,0.1-0.7,0.1-1.1v-2.3c0-0.3,0-0.6-0.1-0.9c0-0.1,0-0.2-0.1-0.3 c0-0.2-0.1-0.4-0.2-0.5c0-0.1-0.1-0.2-0.1-0.3c-0.1-0.2-0.2-0.3-0.2-0.5c-0.1-0.1-0.1-0.2-0.2-0.3c-0.1-0.1-0.2-0.3-0.3-0.4 c-0.1-0.1-0.2-0.2-0.2-0.2c-0.1-0.1-0.2-0.2-0.4-0.3c-0.1-0.1-0.2-0.1-0.3-0.2c-0.1-0.1-0.3-0.2-0.4-0.2c-0.1,0-0.2-0.1-0.3-0.1 c-0.2-0.1-0.3-0.1-0.5-0.2c-0.1,0-0.2-0.1-0.3-0.1c0,0-0.1,0-0.1,0l-0.6-4.6h6.5l-1.8,14.6c0,0.2-0.1,0.3-0.2,0.5 C20.7,35.7,20.7,35.8,20.6,35.8z M30.5,78.6c-0.8-1.8-1.1-3.7-0.9-5.7l1.7,4C31,77.6,30.7,78.2,30.5,78.6z M51.9,95.2h-7.4l21.3-23 l0.1,0l0.2,0L51.9,95.2z M51.5,58.1L51.5,58.1c0-0.1,0-0.2,0-0.2l-0.3-3.7c3.8-1.8,6.9-4.8,9.1-8.4c2.1,3.6,5.3,6.5,9.1,8.4 l-0.3,3.7c0,0,0,0.2,0,0.2v0c-0.3,2.9-2.1,5.4-4.6,6.7c0,0,0,0-0.1,0c-0.6,0.3-1.3,0.6-2,0.7h0c-1.3,0.3-2.7,0.3-4,0h0 c-0.7-0.2-1.3-0.4-2-0.7c0,0,0,0-0.1,0C53.5,63.5,51.8,60.9,51.5,58.1z M54.5,66.5v2l-2.7-0.3c-0.4-0.6-0.9-1.1-1.3-1.7l-0.2-0.3 c-0.5-0.6-1.1-1.2-1.7-1.8l0.3-6.2c0.2,0.2,0.3,0.4,0.5,0.6C49.8,62,51.7,64.8,54.5,66.5z M51,51.6c0.1-4.3,3.5-7.9,7.8-8.3 C58.2,45,56.4,48.3,51,51.6L51,51.6z M61.6,43.3c4.3,0.4,7.6,4,7.8,8.3C63.9,48.3,62.2,45,61.6,43.3L61.6,43.3z M71,58.7 c0.2-0.2,0.3-0.4,0.5-0.6l0.6,13.3c-1.5-0.7-2.5-1-2.6-1c-0.1,0-0.1,0-0.2,0l-3.5-0.4v-3.4C68.7,64.8,70.6,62,71,58.7L71,58.7z  M56.8,67.5c0.1,0,0.1,0,0.2,0c0.5,0.1,0.9,0.3,1.4,0.3c0.5,0.1,1.1,0.1,1.6,0.2c0.1,0,0.1,0,0.2,0s0.1,0,0.2,0 c0.5,0,1.1-0.1,1.6-0.2c0.5-0.1,0.9-0.2,1.4-0.3c0.1,0,0.1,0,0.2,0v2.1l-6.8-0.8V67.5z M86.2,90.7V93c0,1.2-1,2.3-2.3,2.3 c-0.8,0-1.6-0.5-2-1.2c0-0.1-0.1-0.2-0.1-0.3c-0.1-0.2-0.2-0.5-0.2-0.8v-2.3c0-1.2,1-2.3,2.3-2.3S86.2,89.5,86.2,90.7z M85.6,81.7 l-1.9,4.5c-0.1,0-0.2,0-0.3,0.1s-0.3,0-0.4,0.1c-0.1,0-0.3,0.1-0.5,0.1s-0.3,0.1-0.4,0.1c-0.1,0.1-0.3,0.1-0.4,0.2 c-0.1,0.1-0.2,0.1-0.3,0.2c-0.1,0.1-0.3,0.2-0.4,0.3c-0.1,0.1-0.2,0.2-0.3,0.2c-0.1,0.1-0.2,0.2-0.3,0.4c-0.1,0.1-0.2,0.2-0.2,0.3 c-0.1,0.1-0.2,0.3-0.2,0.5c-0.1,0.1-0.1,0.2-0.2,0.3c-0.1,0.2-0.1,0.4-0.2,0.5c0,0.1-0.1,0.2-0.1,0.3c-0.1,0.3-0.1,0.6-0.1,0.9V93 c0,0.3,0,0.7,0.1,1c0,0.1,0.1,0.2,0.1,0.3c0.1,0.2,0.2,0.5,0.3,0.7c0,0,0,0.1,0,0.1l-0.1,0.2H68.7l5.8-13.6L85.6,81.7L85.6,81.7z  M81.2,79.4h-7.4c-0.5,0-0.9,0.3-1,0.7l-6.5,15.2h-2.2L65.8,83c0.1-0.6-0.3-1.2-1-1.3c-0.6-0.1-1.2,0.3-1.3,1l-1.8,12.6h-7.2 l14-22.7l0.5,0.1c0.3,0.1,1.2,0.5,2.5,1l0,0c0.4,0.2,0.8,0.4,1.3,0.6C75.8,75.6,78.6,77.3,81.2,79.4z M75,31.2l-3.6,8.1 c0,0,0,0,0-0.1c-0.5-0.6-1.1-1.1-1.6-1.6l0,0c-0.6-0.5-1.2-0.9-1.8-1.3c-0.1,0-0.1-0.1-0.2-0.1L75,31.2z M60.2,25.8l2.4,8.5 c-0.1,0-0.2,0-0.3,0c-1.4-0.2-2.8-0.2-4.3,0c-0.1,0-0.2,0-0.3,0L60.2,25.8z M53.8,38.2c0.5-0.3,1-0.5,1.5-0.8 c0.4-0.2,0.9-0.3,1.3-0.5c0.5-0.1,0.9-0.2,1.4-0.3l0.5-0.1c1.1-0.1,2.2-0.1,3.3,0l0.5,0.1c0.5,0.1,0.9,0.2,1.4,0.3 c0.5,0.1,0.9,0.3,1.3,0.5c0.5,0.2,1,0.5,1.5,0.8l0.3,0.2c0.5,0.3,1,0.6,1.4,1l0.1,0c0.4,0.4,0.8,0.8,1.2,1.2l0.1,0.1 c0.4,0.5,0.8,0.9,1.1,1.4c0,0,0,0,0,0c0.3,0.5,0.6,1,0.8,1.5c0.1,0.2,0.2,0.3,0.2,0.5c0.1,0.2,0.2,0.5,0.3,0.7s0.1,0.4,0.2,0.6 s0.1,0.4,0.2,0.6c0.1,0.3,0.1,0.6,0.2,0.8c0,0.2,0.1,0.3,0.1,0.5c0.1,0.5,0.1,0.9,0.1,1.4c0,0.5,0,1-0.1,1.5 c-0.1,0.9-0.3,1.8-0.6,2.6l-0.3-0.1C72,46.7,67.4,41.4,61.3,41c-0.2,0-0.4,0-0.6,0h-0.9c-5.5,0-10.2,4-10.9,9.5 c-0.1,0.8-0.1,1.6-0.1,2.4L48.5,53c-0.3-0.9-0.5-1.7-0.6-2.6c-0.1-0.5-0.1-1-0.1-1.5c0-0.5,0-0.9,0.1-1.4c0-0.2,0-0.3,0.1-0.5 c0-0.3,0.1-0.6,0.2-0.8c0-0.2,0.1-0.4,0.2-0.6s0.1-0.4,0.2-0.6c0.1-0.2,0.2-0.5,0.3-0.7c0.1-0.2,0.2-0.3,0.2-0.5 c0.2-0.5,0.5-1,0.8-1.5c0,0,0,0,0,0c0.3-0.5,0.7-1,1.1-1.4l0.1-0.1c0.4-0.4,0.8-0.8,1.2-1.2l0.1,0c0.4-0.4,0.9-0.7,1.4-1L53.8,38.2z  M45.4,31.2l7.3,5c-0.1,0-0.1,0.1-0.2,0.1c-0.6,0.4-1.3,0.8-1.8,1.3l0,0c-0.6,0.5-1.1,1-1.6,1.6c0,0,0,0,0,0.1L45.4,31.2z  M37.6,59.7c0-0.1,0-0.2,0-0.3c0-0.3-0.1-0.7-0.1-1c3.4,2.2,6.6,4.8,9.5,7.6c0.3,0.3,0.5,0.5,0.7,0.8c0.4,0.4,0.8,0.8,1.1,1.3 c0.1,0.1,0.2,0.3,0.4,0.4c0.4,0.5,0.8,1,1.1,1.4c0.2,0.3,0.5,0.5,0.8,0.5l12,1.5L41.4,95.2h-2.7v-7.9c0-0.3-0.1-0.6-0.3-0.8 l-6.2-6.2c2.9-5.6,4.8-11.6,5.5-17.9l0-0.3C37.7,61.3,37.6,60.5,37.6,59.7z M32,51.6l2.2,4.4l0.7,1.7c0.2,0.6,0.3,1.2,0.4,1.9 c0,0,0,0.1,0,0.2c0.1,0.6,0.1,1.2,0.1,1.8c0,0.1,0,0.3,0,0.4c0,0.5,0,1.1-0.1,1.7c0,0.2,0,0.3-0.1,0.5c-0.1,0.5-0.1,1-0.2,1.5 c0,0.2-0.1,0.4-0.1,0.6c-0.1,0.5-0.2,0.9-0.3,1.4c-0.1,0.2-0.1,0.5-0.2,0.7c-0.1,0.4-0.2,0.9-0.4,1.3c-0.1,0.3-0.2,0.5-0.2,0.8 c-0.1,0.4-0.2,0.7-0.4,1.1c-0.1,0.3-0.2,0.6-0.3,0.8c-0.1,0.3-0.2,0.7-0.4,1l-0.2,0.6l-6.8-16.1l-4.8-19.5l0.1,0 c0.2-0.1,0.5-0.2,0.7-0.4c0.1,0,0.1-0.1,0.2-0.1c0.2-0.2,0.4-0.4,0.6-0.6l0,0c0.2-0.2,0.3-0.5,0.4-0.7c0-0.1,0.1-0.1,0.1-0.2 c0.1-0.3,0.2-0.6,0.2-0.9l0.5-4L32,51.6z M18.6,5.5c0.5,1.6,1.2,3.1,2.2,4.4c0.9,1.2,1.6,2.5,1.9,3.9h-6.6 C16.2,10.9,17.1,8,18.6,5.5z M13.8,18.3v-2.3h11.3v2.3H13.8z M13.8,29.6c0-1.2,1-2.3,2.3-2.3c1.2,0,2.3,1,2.3,2.3v2.3 c0,0.3-0.1,0.6-0.2,0.8c0,0.1-0.1,0.2-0.1,0.3c-0.1,0.3-0.3,0.5-0.5,0.7c-0.1,0.1-0.2,0.2-0.3,0.2C17,33.9,16.9,34,16.8,34 c-0.2,0.1-0.5,0.1-0.7,0.1c-1.2,0-2.3-1-2.3-2.3V29.6z M59,39.2v-1.1c0-0.6,0.5-1.1,1.1-1.1s1.1,0.5,1.1,1.1v1.1 c0,0.6-0.5,1.1-1.1,1.1S59,39.9,59,39.2z M55.5,39.2c-0.2-0.6,0.1-1.2,0.7-1.4c0.6-0.2,1.2,0.1,1.4,0.6l0.2,0.5 c0.2,0.6-0.1,1.2-0.7,1.4c0,0,0,0,0,0c-0.1,0-0.3,0.1-0.4,0.1c-0.5,0-0.9-0.3-1.1-0.7L55.5,39.2z M52.7,39.5c0.6-0.2,1.2,0,1.5,0.6 l0.1,0.3c0.2,0.6,0,1.2-0.6,1.5C53.5,42,53.4,42,53.2,42c-0.5,0-0.9-0.3-1-0.7L52.1,41C51.8,40.4,52.1,39.8,52.7,39.5 C52.7,39.5,52.7,39.5,52.7,39.5L52.7,39.5z M51.5,42.6c0.4,0.4,0.4,1.1,0,1.6c-0.2,0.2-0.5,0.3-0.8,0.3c-0.1,0-0.3,0-0.4-0.1 c-0.1,0-0.3-0.1-0.4-0.2c-0.4-0.4-0.5-1.1,0-1.5c0,0,0,0,0,0c0.1-0.1,0.2-0.2,0.4-0.2C50.7,42.2,51.2,42.3,51.5,42.6z M62.6,39 l0.2-0.5c0.2-0.6,0.8-0.9,1.4-0.7c0.6,0.2,0.9,0.8,0.7,1.4c0,0,0,0.1,0,0.1l-0.2,0.5c-0.2,0.4-0.6,0.7-1.1,0.7c-0.1,0-0.3,0-0.4-0.1 C62.7,40.2,62.4,39.6,62.6,39C62.6,39,62.6,39,62.6,39L62.6,39z M66.1,40.4l0.1-0.3c0.2-0.6,0.9-0.9,1.5-0.6 c0.6,0.2,0.9,0.9,0.6,1.5c0,0,0,0,0,0l-0.1,0.3c-0.2,0.4-0.6,0.7-1,0.7c-0.1,0-0.3,0-0.4-0.1C66.1,41.7,65.8,41,66.1,40.4 C66.1,40.4,66.1,40.4,66.1,40.4L66.1,40.4z M68.6,43.8c-0.1-0.1-0.1-0.3-0.1-0.4c0-0.3,0.1-0.6,0.3-0.8c0.1-0.1,0.2-0.2,0.4-0.2 c0.3-0.1,0.6-0.1,0.9,0c0.1,0.1,0.3,0.1,0.4,0.2c0.4,0.4,0.5,1.1,0,1.5c0,0,0,0,0,0c-0.1,0.1-0.2,0.2-0.4,0.2 c-0.1,0.1-0.3,0.1-0.4,0.1c-0.1,0-0.3,0-0.4-0.1c-0.1,0-0.3-0.1-0.4-0.2C68.8,44.1,68.7,43.9,68.6,43.8z"></path></svg>